<svg width="65" height="64" viewBox="0 0 65 64" fill="none" xmlns="http://www.w3.org/2000/svg">
<g clip-path="url(#clip0_2072_2047)">
<path fill-rule="evenodd" clip-rule="evenodd" d="M39.6734 6.02675C35.1816 6.2777 30.7202 6.92014 26.3401 7.94675C25.6734 7.94675 20.8201 8.66675 20.2601 8.90675C20.1566 8.93049 20.0594 8.97601 19.975 9.04028C19.8905 9.10454 19.8207 9.18608 19.7702 9.27945C19.7198 9.37282 19.6898 9.47587 19.6823 9.58174C19.6748 9.68761 19.6899 9.79387 19.7267 9.89342C20.0734 10.9067 28.4734 9.89342 40.0734 8.96008C43.5401 8.50675 45.9401 7.78675 49.1934 7.14675C50.9085 6.89856 52.5961 6.48782 54.2334 5.92008C54.287 5.8194 54.3192 5.70871 54.328 5.59498C54.3368 5.48125 54.3219 5.36693 54.2843 5.25923C54.2467 5.15153 54.1873 5.05276 54.1097 4.96916C54.0321 4.88555 53.938 4.8189 53.8334 4.77342C53.3534 4.26675 52.8201 4.56008 39.6734 6.02675Z" fill="#343434"/>
<path fill-rule="evenodd" clip-rule="evenodd" d="M57.6734 42.6667V11.7067C57.6734 11.44 58.0734 10.3734 56.9001 10.3734C56.66 10.3734 52.5 11.2 52.2334 11.2534L43.5134 11.9467C37.9667 12.48 32.3934 12.6667 26.8467 13.04C19.3001 13.5734 18.8467 14.0534 15.7534 13.6534C14.6067 13.4934 13.4601 13.36 13.0867 12.6667C12.9113 12.2074 12.8812 11.7054 13.0005 11.2285C13.1197 10.7515 13.3825 10.3227 13.7534 10C16.5001 6.64004 22.1267 5.33337 26.3667 4.29337C36.1534 1.92004 39.5134 2.80004 46.3934 2.3467C50.3134 2.08004 52.7934 1.81337 52.5267 0.613369C52.5078 0.510761 52.4683 0.413049 52.4105 0.326115C52.3528 0.239182 52.2781 0.164826 52.1909 0.107523C52.1037 0.0502206 52.0058 0.011157 51.9032 -0.00731566C51.8005 -0.0257883 51.6951 -0.0232878 51.5934 3.51612e-05C42.0734 2.05337 37.0067 -2.02663 18.2334 3.7067C8.50005 6.80004 5.83339 17.04 18.2601 16.7734C16.4956 29.8967 16.0935 43.1673 17.0601 56.3734C17.0601 58.5334 17.0601 59.84 17.8601 60.1067C19.4334 60.56 19.1134 58.1067 19.0334 56.3734C19.0334 40.8 19.7534 46 19.7801 27.04C19.7801 15.4667 19.7801 16.56 20.0467 16.5334C28.6067 15.3067 46.7134 14.2667 55.7534 12.4C54.9534 65.7334 55.4601 33.8667 55.5667 48.3734C55.5941 49.1148 55.5405 49.857 55.4067 50.5867C55.0867 52.5867 32.6601 58.4534 27.7534 59.6534C21.4867 61.2267 16.6601 61.68 10.7401 58.96C8.07338 53.4134 9.08672 24.4267 9.59339 18.96C9.6146 18.7549 9.55347 18.5498 9.42345 18.3898C9.29342 18.2297 9.10515 18.1279 8.90005 18.1067C8.69495 18.0855 8.48982 18.1466 8.32979 18.2766C8.16976 18.4067 8.06794 18.5949 8.04672 18.8C7.38005 24.2934 5.64672 52.3734 7.83338 59.2C8.42005 61.0667 9.22005 61.44 10.8734 62.1334C14.3027 63.6965 18.08 64.3398 21.8334 64C30.9495 62.4861 39.8855 60.0376 48.5001 56.6934C50.8331 56.0719 53.1226 55.2969 55.3534 54.3734C59.8601 51.9467 57.7267 47.4134 57.6734 42.6667Z" fill="#343434"/>
<path fill-rule="evenodd" clip-rule="evenodd" d="M27.1668 35.2267C28.8468 35.6801 30.6068 35.2267 42.3401 33.1734C44.1001 32.8534 46.8201 32.6934 47.6734 31.0134C48.1768 29.4275 48.2776 27.7413 47.9668 26.1067C47.9668 24.8267 49.4868 19.1201 46.2601 19.2534C46.1001 19.2534 27.0068 22.2401 25.8068 22.2667C25.5734 22.2667 25.3495 22.3594 25.1845 22.5245C25.0195 22.6895 24.9268 22.9133 24.9268 23.1467C24.9268 23.8401 25.1668 22.4267 24.9268 26.7201C25.1401 29.7067 23.6734 34.2134 27.1668 35.2267ZM26.9268 24.0001C28.9534 24.0001 23.4601 24.1601 46.1001 22.2134C45.4868 30.9867 45.8868 29.4401 41.9134 30.2134C28.8201 32.8801 27.8868 33.4667 27.3268 32.8801C26.7668 32.2934 27.1668 28.2667 26.9801 26.6667C26.9801 26.5067 26.9001 24.9334 26.9268 24.0001Z" fill="#003366"/>
<path fill-rule="evenodd" clip-rule="evenodd" d="M45.2467 40C45.3428 39.8318 45.39 39.64 45.3829 39.4463C45.3758 39.2527 45.3148 39.0648 45.2066 38.904C45.0985 38.7432 44.9476 38.6158 44.7709 38.5362C44.5942 38.4566 44.3988 38.4279 44.2067 38.4534C43.4334 38.4534 41.5401 38.6667 41.0601 38.6667C36.9353 38.591 32.819 39.0663 28.8201 40.08C27.1667 39.8934 27.5401 41.0667 28.3934 41.4934C30.5267 43.3067 44.6867 40.6134 45.2467 40Z" fill="#003366"/>
<path fill-rule="evenodd" clip-rule="evenodd" d="M28.7934 52.1067C29.4028 52.1111 30.0109 52.0485 30.6067 51.9201C32.6417 51.8727 34.672 51.7035 36.6867 51.4134C39.86 50.8801 42.82 49.7601 45.6734 49.5201C45.8838 49.4836 46.0746 49.3739 46.2122 49.2105C46.3497 49.0471 46.4251 48.8403 46.4251 48.6267C46.4251 48.4131 46.3497 48.2064 46.2122 48.043C46.0746 47.8795 45.8838 47.7699 45.6734 47.7334C38.42 47.1201 28.5 50.4001 28.2867 51.0134C28.0734 51.6267 28.42 51.9201 28.7934 52.1067Z" fill="#003366"/>
</g>
<defs>
<clipPath id="clip0_2072_2047">
<rect width="64" height="64" fill="white" transform="translate(0.5)"/>
</clipPath>
</defs>
</svg>
