<svg width="64" height="64" viewBox="0 0 64 64" fill="none" xmlns="http://www.w3.org/2000/svg">
<path d="M31.7964 10.2768C32.0397 10.2769 32.2734 10.1823 32.4478 10.0132C32.6223 9.84397 32.7238 9.61355 32.7308 9.37085C33.0174 8.2384 33.2403 7.09081 33.3982 5.93347C33.4382 5.17013 33.4382 4.40523 33.3982 3.64189C33.3541 2.58109 33.1284 1.53566 32.7308 0.550915C32.6747 0.364196 32.55 0.205522 32.3817 0.106691C32.2134 0.00786115 32.0138 -0.0238228 31.8231 0.017989C31.6095 0.017989 31.2625 0.23116 30.9955 0.844025C30.7606 1.72148 30.5734 2.61099 30.4349 3.50866C30.3944 4.27198 30.3944 5.03691 30.4349 5.80024C30.4349 6.97268 30.8086 8.06518 30.9688 9.21097C30.9501 9.33561 30.9569 9.46274 30.9888 9.58469C31.0207 9.70663 31.077 9.82086 31.1543 9.92048C31.2317 10.0201 31.3285 10.103 31.4388 10.1643C31.5492 10.2255 31.6708 10.2638 31.7964 10.2768Z" fill="#003366"/>
<path d="M16.0189 16.6717C16.1901 16.4973 16.286 16.263 16.286 16.0188C16.286 15.7747 16.1901 15.5403 16.0189 15.366C15.2402 14.1466 14.3463 13.0044 13.3492 11.9553C12.6551 11.3158 11.8275 10.8361 11.08 10.2499L8.94428 9.18407C8.64945 9.00105 8.3363 8.84923 8.0099 8.73108C7.2624 8.73108 6.94204 8.94425 6.88865 9.26401C6.83724 9.35799 6.8103 9.46336 6.8103 9.57044C6.8103 9.67752 6.83724 9.78288 6.88865 9.87687C7.63532 10.8123 8.43767 11.7021 9.29134 12.5415C9.98545 13.1544 10.6262 13.8205 11.3737 14.3801C12.1212 14.9397 13.6696 15.8456 14.7641 16.6983C14.9393 16.8501 15.1647 16.9315 15.3966 16.9266C15.6286 16.9216 15.8503 16.8308 16.0189 16.6717Z" fill="#003366"/>
<path d="M10.1457 31.4609C8.86337 31.1373 7.54372 30.9849 6.22128 31.0079C5.48655 31.0115 4.75374 31.0829 4.03216 31.221C3.05448 31.492 2.05338 31.6705 1.04215 31.754C0.936973 31.7258 0.82726 31.7186 0.719299 31.7329C0.611338 31.7471 0.507253 31.7824 0.413009 31.8369C0.318766 31.8914 0.236217 31.9639 0.170095 32.0502C0.103973 32.1366 0.0555773 32.2351 0.0276826 32.3402C-0.000247828 32.4434 -0.00713261 32.5513 0.007436 32.6572C0.0220046 32.7632 0.0577303 32.8651 0.112497 32.9571C0.167264 33.049 0.239958 33.129 0.326274 33.1924C0.41259 33.2558 0.510773 33.3013 0.615006 33.3261C1.86486 33.9211 3.23484 34.222 4.61949 34.2054C5.37269 34.193 6.12324 34.1127 6.86199 33.9656C8.00994 33.7524 9.02441 33.3794 9.98549 33.2994C10.232 33.3146 10.4748 33.2345 10.6637 33.0758C10.8526 32.917 10.973 32.6918 11 32.4468C11.0148 32.2036 10.9337 31.9644 10.774 31.7801C10.6144 31.5959 10.3889 31.4813 10.1457 31.4609Z" fill="#003366"/>
<path d="M56.4374 8.01208C56.2832 7.8639 56.0775 7.78113 55.8635 7.78113C55.6494 7.78113 55.4437 7.8639 55.2895 8.01208C54.275 8.57165 53.2605 9.02464 52.2728 9.6908C51.8726 9.96041 51.4893 10.2541 51.1248 10.5701L50.1104 11.5827C49.3362 12.4354 48.642 13.3147 47.8945 14.2473C47.8065 14.3318 47.7365 14.4332 47.6887 14.5454C47.6409 14.6576 47.6162 14.7782 47.6162 14.9002C47.6162 15.0221 47.6409 15.1427 47.6887 15.2549C47.7365 15.3671 47.8065 15.4685 47.8945 15.553C48.0679 15.716 48.2971 15.8068 48.5353 15.8068C48.7734 15.8068 49.0026 15.716 49.176 15.553C50.1904 14.9668 51.1515 14.4338 52.1126 13.7677L53.2872 12.915C53.6601 12.605 54.0082 12.2664 54.3284 11.9024C55.1026 11.0498 55.7166 10.1171 56.4374 9.23781C56.5272 9.16278 56.5994 9.06902 56.6489 8.96313C56.6984 8.85724 56.7241 8.7418 56.7241 8.62494C56.7241 8.50808 56.6984 8.39264 56.6489 8.28676C56.5994 8.18087 56.5272 8.08711 56.4374 8.01208Z" fill="#003366"/>
<path d="M61.5367 31.4608C61.2163 31.4608 60.9227 31.3275 60.6023 31.3009C60.1583 31.261 59.7115 31.261 59.2675 31.3009C58.0928 31.4608 57.0517 31.8605 55.9037 32.1269C55.6863 32.164 55.4891 32.2766 55.3469 32.4449C55.2047 32.6131 55.1267 32.8261 55.1267 33.0462C55.1267 33.2664 55.2047 33.4794 55.3469 33.6476C55.4891 33.8158 55.6863 33.9285 55.9037 33.9655C57.0554 34.2097 58.2249 34.3612 59.401 34.4185C59.8606 34.4107 60.3177 34.3481 60.7625 34.232C61.0724 34.1586 61.3759 34.0606 61.6702 33.9389C62.294 33.7742 62.8949 33.5325 63.4588 33.2194C63.8059 32.8997 64.0462 32.6599 63.9928 32.3668C64.0728 31.5407 62.9249 31.7006 61.5367 31.4608Z" fill="#003366"/>
<path d="M40.0456 16.006C36.2152 13.9985 31.7843 13.4492 27.5783 14.4605C24.359 15.3654 21.442 17.1161 19.1316 19.5299C16.8213 21.9437 15.2023 24.9321 14.4436 28.1834C13.9498 30.4664 13.9498 32.8284 14.4436 35.1114C14.9031 37.3647 15.8109 39.5031 17.1133 41.3999C17.4989 41.9474 17.937 42.4561 18.4214 42.9188C19.3344 43.7687 20.3691 44.4782 21.4915 45.0238C21.5914 45.4069 21.6451 45.8005 21.6517 46.1963V48.8609V49.8202C20.9291 50.35 20.3957 51.0972 20.13 51.9519C19.8898 52.7187 19.8349 53.5314 19.9698 54.3234C20.0495 54.9712 20.298 55.5868 20.6906 56.1087C20.9657 56.44 21.2898 56.7275 21.6517 56.9614C21.04 57.7203 20.6848 58.6531 20.6372 59.626C20.5712 60.1573 20.6257 60.6965 20.7967 61.2038C20.9677 61.7112 21.2508 62.1737 21.625 62.5571C22.3226 63.1877 23.1823 63.6121 24.1078 63.7829C25.316 63.9821 26.5429 64.0447 27.7652 63.9694C28.7515 63.9724 29.7356 63.8742 30.7018 63.6763C30.7995 63.5855 30.8746 63.4731 30.9209 63.3482C30.9673 63.2233 30.9837 63.0892 30.9688 62.9568C30.9527 62.8243 30.9057 62.6974 30.8315 62.5863C30.7573 62.4752 30.658 62.3831 30.5416 62.3173C30.1508 62.284 29.7578 62.284 29.367 62.3173H27.7652C26.7248 62.3138 25.6874 62.2066 24.6684 61.9976C24.1278 61.8618 23.637 61.5753 23.2535 61.1715C23.1264 61.0074 23.0387 60.8163 22.9971 60.6131C22.9554 60.4099 22.961 60.1998 23.0132 59.9991C23.066 59.4424 23.2929 58.9163 23.6619 58.4955C24.0308 58.0747 24.523 57.7803 25.0688 57.6542C25.8697 57.6542 27.4181 58.0539 29.2602 58.1871C29.9448 58.2272 30.6312 58.2272 31.3158 58.1871H33.1312C34.5612 57.9489 35.9779 57.6376 37.3759 57.2545L38.0968 57.068C38.1245 57.2535 38.1245 57.4421 38.0968 57.6276C38.1055 58.2723 37.997 58.9133 37.7764 59.5194C37.3068 60.3593 36.5758 61.0234 35.6941 61.4113C35.3161 61.6917 34.8817 61.8869 34.4208 61.9835C33.9599 62.0801 33.4835 62.0758 33.0244 61.9709C32.8004 61.8676 32.5452 61.8543 32.3116 61.9336C32.0781 62.013 31.884 62.179 31.7697 62.3972C31.6675 62.6169 31.6549 62.8677 31.7346 63.0964C31.8143 63.3252 31.9801 63.514 32.1968 63.623C32.9072 63.8787 33.6652 63.9755 34.4171 63.9064C35.1691 63.8373 35.8967 63.6041 36.5484 63.2233C38.0062 62.6996 39.2404 61.6934 40.0456 60.3721C40.5212 59.3196 40.732 58.167 40.6596 57.0147C40.631 56.2732 40.359 55.5616 39.8854 54.9896C40.2701 54.6663 40.5953 54.2786 40.8465 53.8438C41.1201 53.339 41.2231 52.7596 41.1402 52.1917C41.0616 51.6071 40.856 51.0466 40.5379 50.5496C40.2197 50.0525 39.7966 49.6308 39.2981 49.3139C39.2981 48.4346 39.1112 47.4487 39.1379 46.4894C39.1115 46.2592 39.1115 46.0268 39.1379 45.7966C39.7199 45.6061 40.2692 45.3275 40.7664 44.9706C41.6474 44.331 42.5551 43.6915 43.4361 42.9721C44.0253 42.4593 44.57 41.8977 45.0645 41.2934C46.7306 39.0755 47.8881 36.5194 48.455 33.8057C49.1378 31.0674 49.1378 28.2038 48.455 25.4654C47.7715 23.4008 46.6731 21.497 45.2272 19.8705C43.7813 18.2441 42.0181 16.9291 40.0456 16.006ZM33.0778 54.9629H31.2357H29.2068C27.3004 55.1918 25.3734 55.1918 23.4671 54.9629C23.2535 54.9629 23.12 54.6965 22.9865 54.5366C22.9562 54.3781 22.9562 54.2154 22.9865 54.0569C22.9045 53.7064 22.9045 53.3417 22.9865 52.9911C23.0845 52.7302 23.2618 52.5066 23.4938 52.3516C24.07 51.9957 24.7166 51.7684 25.3892 51.6854C26.6456 51.5015 27.9111 51.3859 29.1801 51.339C31.4095 51.0297 33.6677 50.985 35.9076 51.2058C36.4683 51.2058 38.3904 52.1118 38.2569 53.0444C38.1303 53.5946 37.8413 54.0944 37.4273 54.4791C37.0133 54.8638 36.4933 55.1159 35.9343 55.2027C35.1067 55.2027 34.1457 55.0162 33.0778 54.9629ZM45.9455 33.3261C45.547 35.6962 44.636 37.9513 43.2759 39.9344C42.8849 40.445 42.4566 40.9259 41.9944 41.3733C41.2361 42.0641 40.4335 42.705 39.5918 43.2918C39.3248 43.505 38.2302 43.8514 37.8565 44.1712C37.6377 44.3276 37.4779 44.5528 37.4026 44.8107C37.2204 45.3597 37.1479 45.9391 37.1891 46.516C37.2038 47.1582 37.2573 47.7989 37.3493 48.4346C34.6108 47.9262 31.8099 47.8453 29.0466 48.1948C27.6505 48.2445 26.2592 48.387 24.882 48.6211C24.4193 48.7224 23.9644 48.856 23.5204 49.0208V48.781C23.5204 48.0349 23.6806 46.7559 23.6539 45.69C23.654 45.1127 23.5359 44.5414 23.3069 44.0113C23.159 43.7588 22.9588 43.5407 22.7196 43.3718C22.1856 43.0787 21.358 42.6523 21.1978 42.6523C20.758 42.3337 20.347 41.977 19.9698 41.5865C19.5981 41.1945 19.2672 40.766 18.982 40.3074C17.906 38.585 17.1887 36.6637 16.873 34.6584C16.5484 32.6985 16.6393 30.6923 17.14 28.7696C17.8952 26.0538 19.3494 23.5827 21.358 21.6017C23.3076 19.604 25.7608 18.168 28.4593 17.4449C31.9307 16.6122 35.586 17.047 38.7642 18.6706C40.3656 19.3988 41.8034 20.4419 42.9915 21.7376C44.1796 23.0333 45.0935 24.555 45.6786 26.2115C46.3424 28.5267 46.434 30.9679 45.9455 33.3261Z" fill="#343434"/>
<path d="M39.3251 26.4247C38.9504 25.5872 38.4458 24.8139 37.8301 24.1331C37.3541 23.669 36.8149 23.2743 36.2283 22.9606C35.6245 22.6015 34.9511 22.3745 34.2528 22.2945C33.7236 22.1937 33.1802 22.1937 32.651 22.2945C32.0103 22.5876 31.7166 22.9873 31.9569 23.5469C32.1972 24.1064 33.2383 23.8933 33.799 24.1331C34.1795 24.2934 34.5177 24.5397 34.7867 24.8525C35.0847 25.174 35.3528 25.5218 35.5876 25.8917C36.0137 26.5328 36.3631 27.2214 36.6288 27.9435C36.9583 28.6814 37.2176 29.4487 37.403 30.2351C37.6545 31.2771 37.6545 32.3639 37.403 33.406C37.3158 33.6358 37.323 33.8906 37.4229 34.1151C37.5229 34.3396 37.7076 34.5157 37.9369 34.6051C38.1675 34.6852 38.42 34.6747 38.6432 34.5757C38.8663 34.4767 39.0433 34.2967 39.1383 34.0722C39.9192 32.4113 40.1797 30.5539 39.8858 28.7429C39.8024 27.9488 39.6138 27.1693 39.3251 26.4247Z" fill="#343434"/>
</svg>
