<svg width="24" height="25" viewBox="0 0 24 25" fill="none" xmlns="http://www.w3.org/2000/svg">
<g clip-path="url(#clip0_4520_517)">
<path d="M16.4501 5.57007C16.357 5.57007 16.2666 5.60176 16.194 5.65991C16.1213 5.71807 16.0705 5.79924 16.0501 5.89007C15.7901 6.26007 12.4901 10.8901 11.6001 12.3201C11.3101 12.7701 10.9801 13.2401 10.6901 13.6501C10.3601 14.1201 10.0601 14.5501 9.80008 14.9701L9.23008 15.9101L9.11008 16.1101C7.98008 14.3401 6.44008 13.1101 6.11008 13.2401H5.96008V13.3601C5.92542 13.4502 5.92542 13.55 5.96008 13.6401C6.37585 15.2161 7.34945 16.5877 8.70008 17.5001C8.80369 17.5797 8.9295 17.6251 9.06008 17.6301C9.19092 17.6265 9.31713 17.5809 9.42008 17.5001C9.57008 17.3801 10.4201 16.0601 11.0501 15.1601C11.6801 14.2601 12.3101 13.1601 12.7301 12.5001C13.1501 11.8401 16.0001 7.50007 16.3301 6.94007C16.8501 6.14007 16.8501 6.01007 16.8501 5.94007C16.8425 5.83927 16.797 5.74507 16.7228 5.67643C16.6486 5.60779 16.5512 5.56979 16.4501 5.57007Z" fill="#003366"/>
<path d="M12.2099 0.500066C12.0586 0.552682 11.9255 0.647481 11.8263 0.773282C11.727 0.899082 11.6659 1.05064 11.6499 1.21007C11.5899 2.21007 11.6499 2.63007 11.8799 2.82007C11.9472 2.87572 12.0328 2.90426 12.1199 2.90007H12.2399C12.4599 2.84007 12.4999 2.61007 12.5599 2.27007C12.6092 1.96921 12.6897 1.67429 12.7999 1.39007C12.9799 0.990066 12.8899 0.760066 12.7999 0.640066C12.7269 0.560352 12.6316 0.504393 12.5265 0.479433C12.4213 0.454473 12.311 0.461661 12.2099 0.500066Z" fill="#003366"/>
<path d="M20.6 4.19C20.4551 4.12032 20.2934 4.09364 20.1338 4.11314C19.9743 4.13264 19.8237 4.19749 19.7 4.3C18.97 4.95 18.7 5.3 18.7 5.6C18.7093 5.66286 18.7332 5.72268 18.7696 5.77475C18.806 5.82681 18.8541 5.86969 18.91 5.9C18.959 5.91364 19.0109 5.91364 19.0599 5.9C19.2552 5.86674 19.4362 5.77625 19.58 5.64C19.8288 5.44938 20.101 5.29143 20.3899 5.17C20.8099 5.01 20.9 4.79 20.91 4.63C20.9044 4.53505 20.8725 4.44352 20.8177 4.36577C20.7629 4.28802 20.6875 4.22714 20.6 4.19Z" fill="#003366"/>
<path d="M24 12.7099C23.9474 12.5586 23.8526 12.4255 23.7268 12.3263C23.601 12.227 23.4495 12.1659 23.29 12.1499C22.29 12.0899 21.87 12.1499 21.68 12.3799C21.6419 12.4308 21.6158 12.4895 21.6037 12.5519C21.5915 12.6143 21.5937 12.6786 21.61 12.7399C21.67 12.9599 21.9 12.9999 22.24 13.0599C22.5511 13.1072 22.8562 13.1876 23.15 13.2999C23.2773 13.3655 23.4171 13.403 23.56 13.4099C23.6842 13.4127 23.8051 13.37 23.9 13.2899C23.971 13.2133 24.0183 13.1177 24.036 13.0148C24.0538 12.9118 24.0413 12.8059 24 12.7099Z" fill="#003366"/>
<path d="M18.9 19.2301C18.8372 19.2394 18.7774 19.2633 18.7253 19.2997C18.6732 19.3362 18.6303 19.3842 18.6 19.4401C18.49 19.6301 18.6 19.8201 18.82 20.1101C19.0107 20.3589 19.1686 20.6311 19.29 20.9201C19.45 21.3401 19.67 21.4301 19.83 21.4401C19.9312 21.4333 20.0283 21.3977 20.1098 21.3375C20.1914 21.2772 20.2539 21.1948 20.29 21.1001C20.3597 20.9552 20.3864 20.7935 20.3669 20.634C20.3474 20.4744 20.2825 20.3238 20.18 20.2001C19.55 19.5001 19.19 19.2001 18.9 19.2301Z" fill="#003366"/>
<path d="M11.7601 22.07C11.5401 22.13 11.5001 22.36 11.4401 22.7C11.3929 23.011 11.3124 23.3161 11.2001 23.61C11.0201 24.01 11.1101 24.24 11.2001 24.36C11.246 24.4057 11.3006 24.4417 11.3608 24.4658C11.4209 24.4898 11.4853 24.5015 11.5501 24.5C11.6261 24.5143 11.7041 24.5143 11.7801 24.5C11.9321 24.4485 12.0659 24.354 12.1653 24.2279C12.2647 24.1019 12.3254 23.9498 12.3401 23.79C12.4001 22.79 12.3401 22.37 12.1101 22.18C12.0639 22.1364 12.0084 22.1038 11.9478 22.0848C11.8871 22.0657 11.823 22.0607 11.7601 22.07Z" fill="#003366"/>
<path d="M5.06006 19.1C4.87006 18.99 4.68006 19.1 4.39006 19.32C4.14124 19.5107 3.86902 19.6686 3.58006 19.79C3.16006 19.95 3.07006 20.17 3.06006 20.33C3.06023 20.4354 3.09301 20.538 3.15389 20.624C3.21476 20.7099 3.30076 20.7749 3.40006 20.81C3.51642 20.8623 3.64248 20.8896 3.77006 20.89C3.96406 20.8939 4.15272 20.8263 4.30006 20.7C5.03006 20.05 5.30006 19.7 5.30006 19.4C5.2876 19.3342 5.25921 19.2725 5.21737 19.2202C5.17553 19.1679 5.12152 19.1266 5.06006 19.1Z" fill="#003366"/>
<path d="M1.80005 11.9401C1.489 11.8929 1.18393 11.8124 0.890046 11.7001C0.480046 11.5201 0.260046 11.6101 0.140046 11.7001C0.0687829 11.7745 0.0212322 11.8684 0.00342813 11.9699C-0.014376 12.0714 -0.00163083 12.1759 0.0400462 12.2701C0.0915796 12.4221 0.186075 12.5559 0.312088 12.6553C0.438102 12.7547 0.590228 12.8154 0.750046 12.8301H1.37005C1.93005 12.8301 2.22005 12.7601 2.37005 12.5801C2.40818 12.5293 2.43429 12.4705 2.44642 12.4082C2.45854 12.3458 2.45636 12.2815 2.44005 12.2201C2.37005 12.0401 2.14005 12.0001 1.80005 11.9401Z" fill="#003366"/>
<path d="M4.71 4.0801C4.55 3.6601 4.33 3.5701 4.17 3.5601C4.06433 3.55877 3.96095 3.59096 3.87471 3.65205C3.78847 3.71313 3.72381 3.79997 3.69 3.9001C3.62032 4.04492 3.59364 4.20669 3.61314 4.36621C3.63264 4.52574 3.69749 4.67632 3.8 4.8001C4.42 5.5001 4.8 5.8001 5.05 5.8001C5.11286 5.79074 5.17268 5.7669 5.22475 5.73045C5.27681 5.69401 5.31969 5.64596 5.35 5.5901C5.46 5.4001 5.35 5.2101 5.13 4.9201C4.9546 4.65924 4.81345 4.37693 4.71 4.0801Z" fill="#003366"/>
</g>
<defs>
<clipPath id="clip0_4520_517">
<rect width="24" height="24" fill="white" transform="translate(0 0.5)"/>
</clipPath>
</defs>
</svg>
