<svg width="24" height="25" viewBox="0 0 24 25" fill="none" xmlns="http://www.w3.org/2000/svg">
<g clip-path="url(#clip0_4520_219)">
<path d="M18.8299 7.74993C18.5422 7.4938 18.2383 7.25664 17.9199 7.03993L17.9999 6.96993C18.0599 6.89993 18.1799 6.83993 18.2699 6.74993C18.3799 6.62542 18.4739 6.4877 18.5499 6.33993C18.5999 6.23993 18.6399 6.13993 18.6799 6.04993L19.2399 6.34993C19.3559 6.43216 19.4798 6.50251 19.6099 6.55993C19.8099 6.61993 19.9399 6.55993 19.9999 6.55993C20.0599 6.55993 20.1499 6.41993 20.1299 6.27993C20.1287 6.21476 20.1094 6.15121 20.074 6.09644C20.0387 6.04167 19.9888 5.99785 19.9299 5.96993C19.9299 5.90993 19.7899 5.78993 19.7699 5.75993L19.2599 5.17993C19.0672 5.0099 18.8634 4.85289 18.6499 4.70993C18.4799 4.60993 18.2999 4.55993 18.1299 4.47993C17.5599 4.24993 17.4299 4.13993 17.2299 4.21993C17.0299 4.29993 16.9299 4.47993 17.2299 4.78993C17.3829 4.96322 17.5466 5.12687 17.7199 5.27993C17.8399 5.37993 17.9399 5.49993 18.0499 5.60993L17.9399 5.66993C17.8099 5.78993 17.6299 5.85993 17.4999 5.98993C17.3727 6.11829 17.268 6.267 17.1899 6.42993V6.58993C15.8289 5.86054 14.3368 5.40848 12.7999 5.25993V5.09993C12.81 4.9768 12.81 4.85306 12.7999 4.72993C12.8141 4.61035 12.8141 4.48951 12.7999 4.36993C12.7999 4.13993 12.6899 3.88993 12.6099 3.56993C13.1799 3.56993 13.7499 3.46993 14.3299 3.37993C14.4077 3.37231 14.4795 3.33459 14.5299 3.27482C14.5804 3.21505 14.6055 3.13794 14.5999 3.05993C14.5961 3.02046 14.5846 2.98212 14.5659 2.94714C14.5473 2.91215 14.5219 2.88121 14.4912 2.8561C14.4605 2.83099 14.4252 2.81222 14.3872 2.80086C14.3492 2.7895 14.3093 2.78579 14.2699 2.78993C13.5106 2.83505 12.7492 2.83505 11.9899 2.78993C11.5028 2.73266 11.0212 2.63567 10.5499 2.49993C10.3924 2.45324 10.2461 2.37498 10.1199 2.26993C10.0199 2.19993 9.87988 2.14993 9.91988 2.03993C9.99433 1.92133 10.1022 1.82739 10.2299 1.76993C10.3153 1.71925 10.411 1.68849 10.5099 1.67993C11.1599 1.62993 11.8999 1.52993 12.6099 1.48993C12.8964 1.4753 13.1834 1.4753 13.4699 1.48993C13.743 1.4744 14.0168 1.4744 14.2899 1.48993C14.4247 1.50442 14.5545 1.54884 14.6699 1.61993C14.7585 1.68094 14.8195 1.77432 14.8399 1.87993C14.875 2.02111 14.875 2.16875 14.8399 2.30993C14.8278 2.35327 14.8244 2.39858 14.8299 2.44323C14.8355 2.48789 14.8498 2.53099 14.8722 2.57006C14.8945 2.60913 14.9243 2.64338 14.96 2.67082C14.9957 2.69826 15.0364 2.71835 15.0799 2.72993C15.1661 2.75474 15.2586 2.74449 15.3372 2.70141C15.4159 2.65833 15.4744 2.58591 15.4999 2.49993C15.585 2.19916 15.585 1.8807 15.4999 1.57993C15.4384 1.3482 15.3054 1.14175 15.1199 0.989931C14.9199 0.83387 14.6876 0.724532 14.4399 0.669931C14.1397 0.609019 13.8356 0.568924 13.5299 0.549931C13.1116 0.503527 12.6905 0.486819 12.2699 0.499931C11.6499 0.499931 11.0199 0.549931 10.4499 0.559931C10.1114 0.577664 9.78516 0.692201 9.50988 0.889931C9.21325 1.08548 8.98034 1.36358 8.83988 1.68993C8.76791 1.89591 8.75602 2.11811 8.8056 2.3306C8.85518 2.54308 8.96418 2.73708 9.11988 2.88993C9.4614 3.20919 9.88905 3.42127 10.3499 3.49993C10.8637 3.56643 11.3819 3.59318 11.8999 3.57993C11.8299 3.87993 11.7699 4.11993 11.7299 4.33993C11.7212 4.46311 11.7212 4.58675 11.7299 4.70993V5.07993C11.7266 5.10315 11.7266 5.12671 11.7299 5.14993C10.8674 5.11369 10.0034 5.16058 9.14988 5.28993C7.63836 5.56693 6.23612 6.26613 5.10532 7.30668C3.97452 8.34722 3.16136 9.68661 2.75988 11.1699C1.84859 14.0683 2.11812 17.2092 3.50988 19.9099C5.22988 23.1299 9.61988 24.8199 13.6699 24.3899C23.6199 23.3799 23.1099 11.6099 18.8299 7.74993ZM18.4599 21.6599C17.4599 22.8699 14.9899 23.3999 11.9999 23.5599C9.00988 23.7199 7.23988 22.1599 5.22988 20.5599C4.94821 20.2353 4.70958 19.8756 4.51988 19.4899C3.29655 17.0442 3.07067 14.219 3.88988 11.6099C4.27181 10.3315 4.9581 9.16487 5.88988 8.20993C6.86372 7.30491 8.06171 6.67657 9.35988 6.38993C10.9878 6.10261 12.6565 6.13999 14.2699 6.49993C15.7089 6.88637 17.0647 7.53377 18.2699 8.40993C19.8463 10.2985 20.7441 12.661 20.8199 15.1199C20.8799 17.7499 19.9999 20.3799 18.4599 21.6599Z" fill="#003366"/>
<path d="M12.1998 22.25C12.1998 22.25 12.1398 20.79 11.7898 20.79C11.6798 20.79 11.5998 20.85 11.4998 20.97C11.4243 21.1559 11.3738 21.3509 11.3498 21.55C11.3051 21.7128 11.2849 21.8813 11.2898 22.05C11.2944 22.2116 11.3144 22.3723 11.3498 22.53C11.4476 22.6341 11.5783 22.7012 11.7198 22.72C12.1998 22.72 12.1898 22.4 12.1998 22.25Z" fill="#343434"/>
<path d="M12.1998 7.50001C12.1998 7.50001 12.1398 8.96001 11.7898 8.96001C11.6798 8.96001 11.5998 8.96001 11.4998 8.78001C11.4231 8.59458 11.3727 8.39937 11.3498 8.20001C11.3049 8.0407 11.2847 7.87545 11.2898 7.71001C11.295 7.5452 11.3151 7.38119 11.3498 7.22001C11.4476 7.11596 11.5783 7.04885 11.7198 7.03001C12.1998 7.02001 12.1898 7.35001 12.1998 7.50001Z" fill="#343434"/>
<path d="M18.5498 14.0199C18.2098 14.0899 17.9098 14.2399 17.5498 14.2999C17.4782 14.2999 17.4095 14.3284 17.3589 14.379C17.3082 14.4296 17.2798 14.4983 17.2798 14.5699C17.2798 14.6415 17.3082 14.7102 17.3589 14.7608C17.4095 14.8115 17.4782 14.8399 17.5498 14.8399C17.9131 14.9004 18.282 14.9205 18.6498 14.8999C18.8498 14.8999 19.0598 14.8399 19.2798 14.8299L19.5798 14.7699C19.6456 14.7019 19.6872 14.6141 19.698 14.5201C19.7089 14.4261 19.6884 14.3311 19.6398 14.2499C19.6038 14.1808 19.5528 14.1207 19.4905 14.074C19.4282 14.0272 19.3562 13.9951 19.2798 13.9799C19.0357 13.9643 18.7907 13.9778 18.5498 14.0199Z" fill="#343434"/>
<path d="M17.65 19.79C17.5446 19.6406 17.4311 19.497 17.31 19.36C17.1636 19.2021 17.003 19.0582 16.83 18.93C16.6711 18.8027 16.504 18.6858 16.33 18.58C16.2642 18.536 16.1887 18.5085 16.11 18.5C16.0384 18.5 15.9697 18.5284 15.9191 18.5791C15.8684 18.6297 15.84 18.6984 15.84 18.77C15.84 18.9 15.78 18.77 16.3 19.46C16.38 19.57 16.45 19.72 16.56 19.87C16.6657 20.0095 16.7827 20.1399 16.91 20.26C16.954 20.3055 17.0069 20.3414 17.0654 20.3654C17.1239 20.3895 17.1867 20.4013 17.25 20.4C17.55 20.33 17.81 20.01 17.65 19.79Z" fill="#343434"/>
<path d="M16.0798 9.25009C15.9998 9.40009 15.9398 9.55009 15.8798 9.67009C15.8198 9.79009 15.6298 10.0401 15.5798 10.1801C15.5497 10.2427 15.5327 10.3107 15.5298 10.3801C15.5298 10.4517 15.5582 10.5204 15.6089 10.571C15.6595 10.6216 15.7282 10.6501 15.7998 10.6501C15.7998 10.6501 15.8598 10.7401 16.4998 10.1201L16.7798 9.82009C16.8592 9.71774 16.9327 9.6109 16.9998 9.50009C17.0598 9.40009 17.1098 9.30009 17.1598 9.20009C17.175 9.16718 17.1829 9.13135 17.1829 9.09509C17.1829 9.05883 17.175 9.023 17.1598 8.99009C17.0998 8.67009 16.9098 8.56009 16.5198 8.70009C16.4398 8.77009 16.4198 8.70009 16.3498 8.83009C16.2474 8.96171 16.157 9.10227 16.0798 9.25009Z" fill="#343434"/>
<path d="M5.68988 13.8501C6.01988 13.9201 6.31988 14.0701 6.68988 14.1301C6.76149 14.1301 6.83017 14.1585 6.8808 14.2091C6.93144 14.2598 6.95988 14.3285 6.95988 14.4001C6.95988 14.4717 6.93144 14.5403 6.8808 14.591C6.83017 14.6416 6.76149 14.6701 6.68988 14.6701C6.327 14.7345 5.95763 14.7547 5.58988 14.7301C5.37988 14.7301 5.16988 14.6701 4.94988 14.6601L4.64988 14.6001C4.58405 14.5321 4.54249 14.4443 4.53164 14.3502C4.5208 14.2562 4.54127 14.1613 4.58988 14.0801C4.76988 13.8201 4.94988 13.8101 4.94988 13.8101C5.19727 13.7948 5.44559 13.8082 5.68988 13.8501Z" fill="#343434"/>
<path d="M6.29997 19.3401C6.40212 19.1882 6.51579 19.0445 6.63997 18.9101C6.78511 18.7569 6.946 18.6195 7.11997 18.5001C7.27892 18.3727 7.44593 18.2558 7.61997 18.1501C7.68577 18.106 7.76125 18.0786 7.83997 18.0701C7.91158 18.0701 7.98026 18.0985 8.03089 18.1491C8.08153 18.1998 8.10997 18.2685 8.10997 18.3401C8.10997 18.4701 8.16997 18.3401 7.64997 19.0301C7.56997 19.1401 7.49997 19.2901 7.38997 19.4401C7.28431 19.5795 7.16724 19.71 7.03997 19.8301C6.99598 19.8755 6.94307 19.9114 6.88457 19.9355C6.82607 19.9596 6.76323 19.9714 6.69997 19.9701C6.39997 19.8801 6.13997 19.5601 6.29997 19.3401Z" fill="#343434"/>
<path d="M8.14977 9.25009C8.22977 9.40009 8.28977 9.55009 8.34977 9.67009C8.40977 9.79009 8.59977 10.0401 8.64977 10.1801C8.66762 10.2456 8.66762 10.3146 8.64977 10.3801C8.64981 10.45 8.62274 10.5172 8.57425 10.5676C8.52576 10.6179 8.45963 10.6475 8.38977 10.6501C8.38977 10.6501 8.31977 10.7401 7.67977 10.1201L7.40977 9.82009C7.34755 9.71647 7.2908 9.60965 7.23977 9.50009C7.17977 9.40009 7.12977 9.30009 7.07977 9.20009C7.05447 9.13238 7.05447 9.0578 7.07977 8.99009C7.13977 8.67009 7.33977 8.56009 7.71977 8.70009C7.79977 8.77009 7.81977 8.70009 7.89977 8.83009C7.99558 8.96227 8.07925 9.10285 8.14977 9.25009Z" fill="#343434"/>
</g>
<defs>
<clipPath id="clip0_4520_219">
<rect width="24" height="24" fill="white" transform="translate(0 0.5)"/>
</clipPath>
</defs>
</svg>
