<svg width="24" height="25" viewBox="0 0 24 25" fill="none" xmlns="http://www.w3.org/2000/svg">
<g clip-path="url(#clip0_4520_241)">
<path fill-rule="evenodd" clip-rule="evenodd" d="M23.7902 5.69001C23.5618 4.53878 23.0169 3.47407 22.2166 2.61553C21.4164 1.75699 20.3925 1.13865 19.2602 0.83001C18.0426 0.562138 16.7757 0.624279 15.5902 1.01001C14.4221 1.38143 13.3823 2.0746 12.5902 3.01001C11.5073 4.37359 10.9092 6.05886 10.8902 7.80001C10.8381 8.6681 11.017 9.5345 11.4087 10.3109C11.8005 11.0874 12.391 11.7461 13.1202 12.22C13.5602 12.51 13.4002 12.08 12.8402 14.42C12.4002 15.91 12.4702 15.56 12.4902 15.71C12.4945 15.8191 12.5329 15.924 12.6002 16.01C12.6707 16.1104 12.7728 16.1843 12.8902 16.22C13.1949 16.3037 13.5189 16.2825 13.8102 16.16C14.26 15.941 14.6801 15.6654 15.0602 15.34L16.4902 14.17C16.5258 14.1477 16.5565 14.1185 16.5805 14.084C16.6044 14.0495 16.6211 14.0105 16.6295 13.9693C16.6379 13.9282 16.6379 13.8857 16.6294 13.8446C16.6209 13.8035 16.6042 13.7645 16.5802 13.73C16.5333 13.6602 16.461 13.6117 16.3786 13.5949C16.2963 13.578 16.2107 13.5942 16.1402 13.64L14.5602 14.58C14.286 14.7528 14.0022 14.9097 13.7102 15.05L13.7902 14.66C13.8302 14.42 13.8602 14.18 13.8802 13.94C13.8802 13.4 13.8802 12.87 13.9702 12.34C13.9702 12.19 13.8502 12.13 13.7502 12.01C13.6615 11.8993 13.5486 11.8104 13.4202 11.75C12.7994 11.3108 12.3065 10.7146 11.992 10.0223C11.6774 9.32994 11.5526 8.56646 11.6302 7.81001C11.695 6.27448 12.2684 4.80405 13.2602 3.63001C13.9745 2.85263 14.8926 2.29135 15.9102 2.01001C16.9111 1.6974 17.9765 1.65258 19.0002 1.88001C19.947 2.138 20.804 2.65286 21.4764 3.36762C22.1488 4.08239 22.6104 4.96921 22.8102 5.93001C23.0901 6.89331 23.1381 7.90916 22.9504 8.89458C22.7627 9.88 22.3446 10.8071 21.7302 11.6C21.2163 12.2181 20.5465 12.6877 19.7902 12.96C19.0029 13.2147 18.1771 13.3297 17.3502 13.3C17.2667 13.3021 17.1869 13.3349 17.1261 13.3921C17.0652 13.4493 17.0275 13.5268 17.0202 13.61C17.0188 13.6529 17.0261 13.6956 17.0416 13.7355C17.0571 13.7755 17.0805 13.812 17.1103 13.8428C17.1401 13.8736 17.1759 13.898 17.2154 13.9147C17.2549 13.9314 17.2973 13.94 17.3402 13.94C18.2442 13.9968 19.1511 13.8953 20.0202 13.64C20.9141 13.3529 21.7128 12.8274 22.3302 12.12C23.0666 11.2412 23.5832 10.1996 23.8371 9.08141C24.091 7.96326 24.0749 6.80072 23.7902 5.69001Z" fill="#003366"/>
<path fill-rule="evenodd" clip-rule="evenodd" d="M2.38012 12.6401C2.86797 13.0157 3.41564 13.3065 4.00012 13.5001C5.56012 14.0501 5.41012 13.6501 5.80012 14.1201L6.91012 15.5801L7.79012 16.6401C7.89048 16.7686 8.00082 16.889 8.12012 17.0001C8.22578 17.0923 8.35997 17.1453 8.50012 17.1501C8.59358 17.1525 8.68648 17.135 8.77268 17.0988C8.85888 17.0626 8.9364 17.0085 9.00012 16.9401C9.12938 16.7407 9.22405 16.521 9.28012 16.2901L9.34012 15.8001L9.27012 14.8001L9.23012 13.4001C9.52133 13.4059 9.81161 13.3654 10.0901 13.2801C10.2037 13.2374 10.3112 13.1803 10.4101 13.1101C10.509 13.0444 10.5996 12.9672 10.6801 12.8801C10.8625 12.6713 11.0264 12.4471 11.1701 12.2101C11.2271 12.149 11.2587 12.0686 11.2587 11.9851C11.2587 11.9016 11.2271 11.8212 11.1701 11.7601C11.1102 11.7009 11.0294 11.6676 10.9451 11.6676C10.8609 11.6676 10.78 11.7009 10.7201 11.7601C10.4201 11.9601 10.1001 12.0601 9.81012 12.2201C9.7326 12.2711 9.65906 12.328 9.59012 12.3901C9.39012 12.5501 9.26012 12.7301 9.06012 12.8701C8.86012 13.0101 9.06012 12.8701 8.91012 12.8701C8.86808 12.8674 8.82591 12.873 8.78605 12.8866C8.74619 12.9002 8.7094 12.9216 8.67781 12.9495C8.64622 12.9774 8.62045 13.0112 8.60197 13.049C8.58349 13.0869 8.57266 13.128 8.57012 13.1701L8.43012 14.7601L8.34012 15.6901L7.56012 14.9601L6.24012 13.7601C6.05012 13.5401 6.16012 13.3401 5.87012 13.2901C5.31801 13.2022 4.77781 13.0512 4.26012 12.8401C3.75581 12.651 3.29119 12.3696 2.89012 12.0101C2.66174 11.7979 2.46325 11.5557 2.30012 11.2901C2.13356 11.0365 1.98325 10.7727 1.85012 10.5001C1.57869 9.95918 1.37065 9.38874 1.23012 8.80009C1.08271 8.23257 1.02534 7.64541 1.06012 7.06009C1.12143 5.87712 1.53982 4.74049 2.26012 3.80009C2.95642 2.85266 3.90623 2.12123 5.00012 1.69009C5.40553 1.53456 5.82882 1.43041 6.26012 1.38009C6.69562 1.33493 7.13462 1.33493 7.57012 1.38009C8.05331 1.40175 8.53276 1.47551 9.00012 1.60009C9.45337 1.73689 9.89213 1.91775 10.3101 2.14009C10.3756 2.17326 10.4513 2.18036 10.5218 2.15994C10.5923 2.13953 10.6525 2.09312 10.6901 2.03009C10.7094 1.99748 10.7219 1.9613 10.7268 1.92374C10.7317 1.88617 10.7289 1.84801 10.7186 1.81155C10.7083 1.77508 10.6907 1.74109 10.6669 1.71162C10.6431 1.68215 10.6136 1.65782 10.5801 1.64009C10.1251 1.37865 9.64628 1.16101 9.15012 0.990091C8.66352 0.819857 8.16097 0.699244 7.65012 0.630091C7.16674 0.560631 6.67756 0.540527 6.19012 0.570091C5.69117 0.601725 5.19774 0.692356 4.72012 0.840091C3.40137 1.25733 2.24207 2.0685 1.39822 3.16444C0.554361 4.26038 0.0664429 5.5885 0.000117525 6.97009C-0.0121557 7.64661 0.0788925 8.32104 0.270118 8.97009C0.465291 9.61213 0.726697 10.2321 1.05012 10.8201C1.24888 11.2108 1.4832 11.5824 1.75012 11.9301C1.93426 12.1885 2.14546 12.4265 2.38012 12.6401Z" fill="#003366"/>
<path fill-rule="evenodd" clip-rule="evenodd" d="M15.0001 10.2402C15.005 10.2824 15.0183 10.3231 15.0392 10.3601C15.06 10.3971 15.088 10.4295 15.1215 10.4556C15.155 10.4816 15.1933 10.5008 15.2343 10.5119C15.2753 10.523 15.318 10.5258 15.3601 10.5202C16.0949 10.5044 16.8111 10.2864 17.4301 9.8902C17.6617 10.0166 17.9065 10.1172 18.1601 10.1902C18.5822 10.3146 19.0136 10.4049 19.4501 10.4602C19.4927 10.4752 19.538 10.4811 19.5831 10.4773C19.6281 10.4736 19.6718 10.4604 19.7113 10.4385C19.7509 10.4167 19.7854 10.3867 19.8125 10.3506C19.8396 10.3145 19.8588 10.273 19.8688 10.2289C19.8787 10.1849 19.8792 10.1392 19.8702 10.0949C19.8613 10.0506 19.843 10.0087 19.8167 9.97201C19.7904 9.93529 19.7566 9.90456 19.7175 9.88184C19.6785 9.85912 19.635 9.84493 19.5901 9.8402C19.2707 9.74437 18.9569 9.63086 18.6501 9.5002C18.4944 9.41641 18.3441 9.32289 18.2001 9.2202C18.331 9.07461 18.4481 8.91727 18.5501 8.7502C18.7067 8.47319 18.8276 8.17752 18.9101 7.8702L19.1001 6.3302C19.4501 6.3302 19.8101 6.2702 20.1601 6.2202C20.384 6.18932 20.6048 6.13914 20.8201 6.0702C20.8608 6.05971 20.8991 6.0413 20.9327 6.01602C20.9663 5.99074 20.9946 5.95909 21.0159 5.92287C21.0373 5.88665 21.0513 5.84657 21.0572 5.80494C21.063 5.7633 21.0606 5.72091 21.0501 5.6802C21.0267 5.59936 20.9733 5.53052 20.9008 5.48777C20.8283 5.44501 20.7422 5.43158 20.6601 5.4502C20.4771 5.46514 20.2931 5.46514 20.1101 5.4502C19.6301 5.4502 19.1101 5.3502 18.6601 5.3502H17.7401C17.6601 5.1902 17.6201 5.0402 17.5301 4.8902C17.4719 4.77694 17.3978 4.67256 17.3101 4.5802C17.1255 4.43068 16.9242 4.30315 16.7101 4.2002C16.6624 4.14185 16.5934 4.10486 16.5184 4.09736C16.4434 4.08986 16.3685 4.11246 16.3101 4.1602C16.2518 4.20794 16.2148 4.2769 16.2073 4.35192C16.1998 4.42693 16.2224 4.50185 16.2701 4.5602C16.3128 4.75959 16.3662 4.95654 16.4301 5.1502C16.4685 5.22848 16.5155 5.30227 16.5701 5.3702C16.5885 5.39538 16.6124 5.41593 16.6401 5.4302L16.1401 5.5002L15.2201 5.6702C15.0269 5.68048 14.8333 5.68048 14.6401 5.6702C14.6025 5.66607 14.5645 5.66959 14.5283 5.68055C14.4921 5.69152 14.4585 5.7097 14.4296 5.73399C14.4006 5.75829 14.3769 5.7882 14.3598 5.82192C14.3427 5.85564 14.3326 5.89248 14.3301 5.9302C14.326 5.96647 14.3292 6.0032 14.3397 6.03817C14.3501 6.07314 14.3676 6.10563 14.3909 6.13367C14.4143 6.16171 14.4431 6.18472 14.4756 6.20131C14.5082 6.21791 14.5437 6.22773 14.5801 6.2302L15.5801 6.3202C15.5753 6.4068 15.5753 6.4936 15.5801 6.5802C15.5974 6.86361 15.6409 7.14481 15.7101 7.4202C15.8185 7.87526 15.9901 8.31286 16.2201 8.7202C16.3302 8.88654 16.4575 9.04074 16.6001 9.1802C16.1971 9.47885 15.7379 9.69312 15.2501 9.8102C15.203 9.81751 15.1581 9.83526 15.1188 9.86214C15.0794 9.88902 15.0465 9.92436 15.0226 9.96558C14.9986 10.0068 14.9841 10.0528 14.9803 10.1003C14.9764 10.1479 14.9832 10.1956 15.0001 10.2402ZM16.2701 6.5502V6.4402H17.4801C17.8801 6.4402 18.1501 6.4402 18.4801 6.3502L18.0001 7.5002C17.8358 7.83722 17.631 8.1529 17.3901 8.4402H17.3401C17.3044 8.39876 17.271 8.35536 17.2401 8.3102C16.9459 7.958 16.7004 7.56784 16.5101 7.1502C16.4119 6.95796 16.3316 6.75712 16.2701 6.5502Z" fill="#003366"/>
<path fill-rule="evenodd" clip-rule="evenodd" d="M5.74021 5.28021C5.9032 5.29528 6.06723 5.29528 6.23022 5.28021C6.39022 5.28021 6.54021 5.22021 6.70021 5.19021L7.29022 5.05021C7.33093 5.06073 7.37331 5.06313 7.41495 5.05727C7.45659 5.05141 7.49666 5.03739 7.53288 5.01603C7.5691 4.99467 7.60076 4.96638 7.62604 4.93278C7.65132 4.89918 7.66973 4.86093 7.68021 4.82021C7.69231 4.78016 7.69618 4.73807 7.69158 4.69649C7.68699 4.65491 7.67402 4.61468 7.65347 4.57824C7.63291 4.5418 7.60519 4.5099 7.57198 4.48446C7.53877 4.45902 7.50075 4.44056 7.46022 4.43021L6.69022 4.27021L6.29022 4.21021H5.89021H5.66021C5.34021 4.28021 5.06022 4.40021 4.75022 4.47021C4.68938 4.46852 4.62889 4.47977 4.57272 4.50321C4.51656 4.52665 4.46602 4.56174 4.42443 4.60617C4.38284 4.65059 4.35115 4.70334 4.33146 4.76093C4.31177 4.81851 4.30453 4.87962 4.31021 4.94021L4.22021 7.36021V8.36021V9.2402C4.23698 9.46306 4.32063 9.67567 4.46022 9.85021C4.56711 9.97121 4.70001 10.0665 4.84894 10.1288C4.99788 10.1911 5.15899 10.219 5.32022 10.2102L6.04022 10.1102L6.66021 10.0002L7.83021 9.85021C7.90414 9.82412 7.96591 9.7718 8.00382 9.70319C8.04172 9.63457 8.05312 9.55443 8.03586 9.47796C8.01859 9.4015 7.97386 9.33403 7.91015 9.28836C7.84643 9.24269 7.76817 9.222 7.69022 9.2302H6.61022L6.00022 9.2402H5.40022H5.29022C5.28484 9.19369 5.28484 9.14672 5.29022 9.10021V8.3702L5.17022 7.3702V7.23021C5.32678 7.30478 5.49111 7.36179 5.66021 7.40021C5.77037 7.44353 5.88415 7.477 6.00022 7.50021C6.12001 7.51008 6.24042 7.51008 6.36022 7.50021C6.64515 7.45219 6.92363 7.37167 7.19022 7.26021C7.27355 7.24782 7.34863 7.20308 7.39918 7.13568C7.44973 7.06828 7.47166 6.98367 7.46022 6.90021C7.45414 6.85796 7.43968 6.81735 7.41768 6.78078C7.39567 6.74421 7.36658 6.71241 7.3321 6.68725C7.29762 6.66209 7.25846 6.64408 7.21692 6.63429C7.17538 6.62449 7.1323 6.6231 7.09022 6.63021C6.84022 6.63021 6.61022 6.5202 6.34022 6.4902C6.1708 6.47034 5.99963 6.47034 5.83021 6.4902C5.58399 6.465 5.33567 6.46835 5.09022 6.50021L4.89021 5.1002C5.16797 5.18404 5.45232 5.24426 5.74021 5.28021Z" fill="#003366"/>
<path fill-rule="evenodd" clip-rule="evenodd" d="M19.8701 19.5002C18.8701 19.8102 17.7001 20.0402 16.6101 20.4002C15.8683 20.6274 15.1514 20.9289 14.4701 21.3002C11.4701 22.9402 11.9501 24.3502 11.9101 23.4202L11.8601 21.5402V20.3102C11.8601 19.9002 11.8601 19.4802 11.8001 19.0702C11.7301 18.2402 11.5901 17.4302 11.4401 16.6002C11.4401 16.5259 11.4106 16.4547 11.3581 16.4022C11.3056 16.3497 11.2344 16.3202 11.1601 16.3202C11.0859 16.3202 11.0146 16.3497 10.9621 16.4022C10.9096 16.4547 10.8801 16.5259 10.8801 16.6002C10.8801 17.6002 10.7601 18.6002 10.7701 19.6002C10.7701 20.2602 10.8501 20.9202 10.9101 21.6002L11.2801 23.5002V23.5502L10.5801 23.0702C10.3126 22.9202 10.0313 22.7963 9.74011 22.7002C9.33011 22.5602 8.91011 22.4602 8.50011 22.3302C8.08757 22.1934 7.66671 22.0832 7.24011 22.0002C6.83102 21.9117 6.41692 21.8483 6.00011 21.8102L4.39011 21.6202L3.55011 21.4302C3.26011 21.3602 3.11011 21.3002 3.04011 21.1502C2.94413 20.6631 2.9072 20.1661 2.93011 19.6702L2.61011 17.5002C2.54011 16.8202 2.49011 16.1502 2.40011 15.5002C2.3444 15.0462 2.26429 14.5955 2.16011 14.1502C2.14116 14.0777 2.09576 14.0149 2.03283 13.9742C1.96991 13.9334 1.89402 13.9178 1.82011 13.9302C1.78312 13.9371 1.74798 13.9516 1.71695 13.9729C1.68591 13.9942 1.65967 14.0217 1.63989 14.0537C1.62012 14.0857 1.60726 14.1215 1.60213 14.1588C1.597 14.1961 1.59972 14.234 1.61011 14.2702C1.67593 14.6775 1.71933 15.0881 1.74011 15.5002C1.74011 16.1602 1.74011 16.8202 1.79011 17.5002L1.90011 19.7502C1.8577 20.3553 1.89129 20.9634 2.00011 21.5602C2.10983 21.8132 2.28386 22.0331 2.50491 22.198C2.72596 22.3629 2.98632 22.4671 3.26011 22.5002L4.17011 22.7002C4.46011 22.7502 4.75011 22.7802 5.05011 22.8102H5.93011C6.32477 22.8109 6.71896 22.8377 7.11011 22.8902C7.50731 22.9455 7.90121 23.0223 8.29011 23.1202C8.70011 23.2202 9.12011 23.2902 9.53011 23.4002C9.78271 23.4689 10.03 23.5558 10.2701 23.6602L11.4301 24.3702C11.4301 24.3702 11.9601 24.5102 12.0901 24.3202C12.6662 23.6381 13.3692 23.0744 14.1601 22.6602C14.4501 22.5002 14.7501 22.3502 15.0501 22.2102C15.5101 21.9902 15.9701 21.7902 16.4401 21.5902C17.6701 21.0802 18.9201 20.5902 20.0801 20.1202C20.1199 20.108 20.1568 20.0876 20.1883 20.0604C20.2199 20.0332 20.2454 19.9997 20.2633 19.962C20.2811 19.9244 20.291 19.8835 20.2921 19.8418C20.2933 19.8002 20.2858 19.7588 20.2701 19.7202C20.2599 19.6785 20.2411 19.6394 20.215 19.6053C20.1889 19.5713 20.156 19.543 20.1184 19.5223C20.0808 19.5017 20.0393 19.489 19.9966 19.4852C19.9539 19.4814 19.9108 19.4865 19.8701 19.5002Z" fill="#003366"/>
<path fill-rule="evenodd" clip-rule="evenodd" d="M21.0001 14.6C21.0028 14.5629 20.9979 14.5256 20.9855 14.4905C20.9732 14.4554 20.9538 14.4232 20.9284 14.396C20.9031 14.3688 20.8724 14.3471 20.8382 14.3323C20.8041 14.3175 20.7673 14.3099 20.7301 14.31C20.6925 14.3086 20.655 14.3149 20.6198 14.3284C20.5847 14.3418 20.5526 14.3622 20.5256 14.3884C20.4985 14.4145 20.477 14.4458 20.4623 14.4805C20.4476 14.5151 20.44 14.5524 20.4401 14.59C20.3262 15.2012 20.2527 15.8192 20.2201 16.44C20.2001 16.7997 20.2001 17.1603 20.2201 17.52C20.2201 18.07 20.3201 18.59 20.3101 19.13C20.3045 19.1721 20.3073 19.2148 20.3184 19.2558C20.3295 19.2968 20.3486 19.3351 20.3747 19.3686C20.4007 19.4021 20.4332 19.4301 20.4702 19.4509C20.5072 19.4718 20.5479 19.4851 20.5901 19.49C20.6308 19.4956 20.6723 19.493 20.712 19.4824C20.7518 19.4719 20.7891 19.4535 20.8216 19.4283C20.8542 19.4032 20.8815 19.3718 20.9018 19.3361C20.9221 19.3003 20.9351 19.2608 20.9401 19.22C21.0802 18.6819 21.1772 18.1335 21.2301 17.58C21.25 17.3437 21.25 17.1062 21.2301 16.87C21.245 16.6402 21.245 16.4098 21.2301 16.18C21.1501 15.64 21.0001 15.13 21.0001 14.6Z" fill="#003366"/>
<path fill-rule="evenodd" clip-rule="evenodd" d="M16.1901 17.9602C15.8301 18.1002 15.4701 18.2102 15.1201 18.3802C14.5983 18.6642 14.1059 18.9992 13.6501 19.3802C13.6136 19.3958 13.5809 19.419 13.554 19.4482C13.5272 19.4774 13.5068 19.5121 13.4944 19.5497C13.4819 19.5874 13.4776 19.6273 13.4817 19.6668C13.4859 19.7063 13.4984 19.7444 13.5184 19.7787C13.5384 19.813 13.5654 19.8427 13.5978 19.8657C13.6301 19.8887 13.6669 19.9046 13.7059 19.9123C13.7448 19.92 13.785 19.9194 13.8236 19.9104C13.8623 19.9014 13.8986 19.8843 13.9301 19.8602C14.5301 19.6102 15.1601 19.4802 15.7801 19.2702C16.0501 19.1802 16.3001 19.0602 16.5601 18.9602C16.8201 18.8602 17.1801 18.6002 17.5601 18.4602C17.7497 18.3715 17.9523 18.3141 18.1601 18.2902C18.2434 18.2958 18.3256 18.2685 18.3892 18.2144C18.4527 18.1602 18.4925 18.0833 18.5001 18.0002C18.5029 17.9581 18.4972 17.916 18.4836 17.8761C18.47 17.8363 18.4486 17.7995 18.4208 17.7679C18.3929 17.7363 18.359 17.7105 18.3212 17.692C18.2833 17.6736 18.2422 17.6627 18.2001 17.6602C17.9132 17.6009 17.6171 17.6009 17.3301 17.6602C16.9448 17.7388 16.5642 17.839 16.1901 17.9602Z" fill="#343434"/>
<path fill-rule="evenodd" clip-rule="evenodd" d="M4.90013 19.9601C5.37013 20.1001 5.90013 20.2701 6.42013 20.3801C6.71013 20.4301 7.01013 20.4601 7.29013 20.5001C7.71384 20.5265 8.1315 20.6141 8.53013 20.7601C8.60306 20.8052 8.69092 20.8195 8.77437 20.7998C8.85783 20.7801 8.93004 20.7281 8.97513 20.6551C9.02021 20.5822 9.03448 20.4943 9.01479 20.4109C8.9951 20.3274 8.94306 20.2552 8.87013 20.2101C8.41934 19.8687 7.90129 19.6267 7.35013 19.5001C7.02382 19.4137 6.68768 19.37 6.35013 19.3701C5.85013 19.3701 5.35013 19.4401 4.94013 19.4501C4.90387 19.4445 4.86685 19.4463 4.83132 19.4555C4.7958 19.4647 4.76252 19.481 4.7335 19.5034C4.70449 19.5259 4.68037 19.554 4.66259 19.5861C4.64482 19.6182 4.63377 19.6536 4.63013 19.6901C4.63261 19.7609 4.66186 19.8282 4.71196 19.8783C4.76207 19.9284 4.82931 19.9576 4.90013 19.9601Z" fill="#343434"/>
<path fill-rule="evenodd" clip-rule="evenodd" d="M6.00017 18.1802C6.15056 18.2307 6.30426 18.2708 6.46017 18.3001C6.61017 18.3001 6.77017 18.3601 6.92017 18.3901C7.30017 18.4501 7.67017 18.4801 8.03017 18.5501C8.10841 18.5793 8.19503 18.5762 8.27098 18.5415C8.34693 18.5068 8.40599 18.4434 8.43517 18.3651C8.46434 18.2869 8.46124 18.2003 8.42655 18.1243C8.39185 18.0484 8.32841 17.9893 8.25017 17.9601C7.9128 17.7504 7.55818 17.5697 7.19017 17.4202C7.03344 17.3546 6.87319 17.2979 6.71017 17.2502C6.54278 17.2089 6.37215 17.1821 6.20017 17.1702C5.79884 17.1537 5.39686 17.1771 5.00017 17.2401C4.9639 17.236 4.92717 17.2393 4.8922 17.2497C4.85723 17.2602 4.82474 17.2776 4.7967 17.301C4.76866 17.3244 4.74565 17.3532 4.72905 17.3857C4.71246 17.4182 4.70264 17.4537 4.70017 17.4901C4.69733 17.5307 4.70307 17.5715 4.71701 17.6097C4.73095 17.6479 4.75277 17.6828 4.78107 17.712C4.80936 17.7413 4.84349 17.7642 4.88124 17.7794C4.91899 17.7946 4.95951 17.8017 5.00017 17.8001C5.32017 17.9001 5.64017 18.0602 6.00017 18.1802Z" fill="#343434"/>
<path fill-rule="evenodd" clip-rule="evenodd" d="M17.12 15.8902C16.6258 15.8302 16.1249 15.8573 15.64 15.9702C15.43 16.0191 15.2256 16.0894 15.03 16.1802C14.8394 16.2758 14.6586 16.3896 14.49 16.5202C14.1138 16.8343 13.778 17.1937 13.49 17.5902C13.4357 17.6419 13.4041 17.7131 13.4022 17.7881C13.4003 17.8631 13.4283 17.9358 13.48 17.9902C13.5317 18.0446 13.6029 18.0762 13.678 18.078C13.753 18.0799 13.8257 18.0519 13.88 18.0002C14.3152 17.7274 14.7698 17.4868 15.24 17.2802C15.53 17.1302 15.8 16.9702 16.1 16.8502C16.4198 16.705 16.7554 16.5976 17.1 16.5302C17.1429 16.5289 17.1852 16.5191 17.2242 16.5012C17.2632 16.4832 17.2982 16.4577 17.3271 16.4259C17.3561 16.3942 17.3783 16.357 17.3925 16.3165C17.4068 16.276 17.4127 16.233 17.41 16.1902C17.4056 16.1138 17.3739 16.0415 17.3207 15.9864C17.2674 15.9314 17.1963 15.8972 17.12 15.8902Z" fill="#343434"/>
</g>
<defs>
<clipPath id="clip0_4520_241">
<rect width="24" height="24" fill="white" transform="translate(0 0.5)"/>
</clipPath>
</defs>
</svg>
