<svg width="24" height="25" viewBox="0 0 24 25" fill="none" xmlns="http://www.w3.org/2000/svg">
<path d="M11.2875 2.70674C11.1675 2.38674 11.0875 2.43674 9.1675 0.846742C9.09406 0.797506 9.00472 0.777884 8.91741 0.791821C8.8301 0.805758 8.7513 0.852221 8.69685 0.921873C8.64239 0.991525 8.61632 1.0792 8.62386 1.1673C8.6314 1.25539 8.672 1.33736 8.7375 1.39674C11.1675 3.50674 10.5575 2.67674 10.5175 4.12674C10.5387 5.49778 10.4551 6.86843 10.2675 8.22674C10.1939 8.68963 10.0903 9.14726 9.9575 9.59674C9.89927 9.67432 9.83215 9.74481 9.7575 9.80674C9.7575 9.80674 9.6575 9.80674 9.5975 9.80674C8.62814 9.85652 7.65686 9.85652 6.6875 9.80674C5.39377 9.78949 4.1019 9.7027 2.8175 9.54674C3.3775 7.70674 3.3475 5.29674 3.5275 1.65674C4.7575 1.42674 6.8275 1.17674 7.2975 1.12674C7.37971 1.1095 7.45171 1.06031 7.49766 0.989984C7.54361 0.919657 7.55974 0.83396 7.5425 0.751742C7.52526 0.669525 7.47606 0.597524 7.40574 0.551577C7.33541 0.505631 7.24971 0.489503 7.1675 0.506742C5.4475 0.646742 6.1675 0.576742 3.8275 0.826742C2.4775 1.03674 2.7675 0.646742 2.2375 6.62674C2.14307 7.71104 1.89039 8.77566 1.4875 9.78674C1.44076 9.87229 1.41596 9.96809 1.4153 10.0656C1.41463 10.1631 1.43814 10.2592 1.4837 10.3454C1.52927 10.4315 1.59548 10.5051 1.67641 10.5594C1.75735 10.6138 1.85048 10.6472 1.9475 10.6567C3.52298 10.8613 5.10894 10.9748 6.6975 10.9967C10.3175 10.9367 11.1175 11.6067 11.3575 7.27674C11.3575 3.24674 11.4875 3.09674 11.2875 2.70674Z" fill="#003366"/>
<path d="M23.3375 3.24672C23.3375 2.40672 22.9475 2.38672 21.0575 0.846724C21.0009 0.81013 20.9349 0.790663 20.8675 0.790663C20.8001 0.790663 20.7341 0.81013 20.6775 0.846724C15.4075 0.686724 14.8975 0.786724 14.6775 1.35672C14.4575 1.92672 14.2875 6.41672 13.8775 8.35672C13.5275 10.0067 13.1775 9.95672 13.4075 10.4067C13.4515 10.4953 13.5182 10.5706 13.6007 10.6251C13.6833 10.6795 13.7788 10.7112 13.8775 10.7167C14.8775 10.8167 15.7875 10.9267 16.6975 10.9867C17.6075 11.0467 20.6975 11.0967 21.4075 10.9867C22.8675 10.8267 22.9875 9.90672 23.1775 8.40672C23.3294 6.99873 23.3662 5.5807 23.2875 4.16672C23.2875 3.92672 23.3475 3.55672 23.3375 3.24672ZM22.5275 3.36672C22.5275 3.64672 22.4575 3.94672 22.4475 4.12672C22.4998 5.84185 22.3487 7.55713 21.9975 9.23672C21.991 9.35508 21.958 9.47047 21.9009 9.57434C21.8438 9.6782 21.764 9.76788 21.6675 9.83672C21.4775 9.97672 17.0275 9.77672 16.7875 9.75672C16.1175 9.70672 15.4575 9.63672 14.7875 9.56672C15.3675 7.68672 15.3375 5.24672 15.5175 1.70672C17.2253 1.49038 18.9464 1.39681 20.6675 1.42672L21.8675 2.42672C22.4775 3.01672 22.5575 2.88672 22.5275 3.36672Z" fill="#003366"/>
<path d="M10.0175 15.4168C8.66752 14.3168 8.60752 14.1768 8.33752 14.3268C6.45752 14.2668 3.11752 14.0968 2.52752 14.5568C1.93752 15.0168 2.08752 21.5068 1.07752 23.2968C1.02854 23.3826 1.00192 23.4794 1.0001 23.5783C0.998284 23.6771 1.02133 23.7748 1.06713 23.8624C1.11292 23.95 1.18 24.0247 1.26219 24.0797C1.34438 24.1346 1.43905 24.168 1.53752 24.1768C3.11316 24.3783 4.69914 24.4885 6.28752 24.5068C9.91752 24.4368 10.6875 25.1168 10.9475 20.7968C10.9475 15.5668 11.2875 16.5068 10.0175 15.4168ZM10.1675 16.8768C10.1675 17.1568 10.0975 17.4568 10.0875 17.6368C10.1398 19.3519 9.98875 21.0672 9.63752 22.7468C9.56752 23.0368 9.63752 23.1068 9.30752 23.3468C8.97752 23.5868 4.65752 23.2868 4.42752 23.2668C3.75752 23.2168 3.09752 23.1468 2.42752 23.0768C2.98752 21.2568 2.95752 19.1468 3.15752 15.2168C4.875 14.9973 6.60653 14.9071 8.33752 14.9468L9.53752 15.9468C10.1675 16.5068 10.2175 16.3968 10.1675 16.8768Z" fill="#003366"/>
<path d="M21.9375 15.4168C20.5875 14.3168 20.5375 14.1768 20.2675 14.3268C18.3975 14.2668 15.0375 14.0968 14.4575 14.5568C13.8775 15.0168 14.0475 21.3868 13.0075 23.2968C12.9587 23.3819 12.9319 23.4779 12.9296 23.576C12.9273 23.6741 12.9495 23.7713 12.9941 23.8586C13.0388 23.946 13.1046 24.0209 13.1855 24.0764C13.2664 24.132 13.3599 24.1665 13.4575 24.1768C15.0367 24.3749 16.626 24.4818 18.2175 24.4968C21.8475 24.4268 22.6175 25.1068 22.8675 20.7868C22.8675 15.5668 23.2175 16.5068 21.9375 15.4168ZM22.1675 16.8768C22.1675 17.1568 22.0875 17.4568 22.0875 17.6368C22.1408 19.3524 21.9864 21.0682 21.6275 22.7468C21.6233 22.8656 21.5912 22.9818 21.5339 23.086C21.4766 23.1902 21.3956 23.2795 21.2975 23.3468C21.1175 23.4868 16.6575 23.2868 16.4175 23.2668C15.7575 23.2168 15.0975 23.1468 14.4175 23.0768C14.9875 21.2568 14.9575 19.0768 15.1575 15.2168C16.8716 14.9971 18.5998 14.9068 20.3275 14.9468L21.5275 15.9468C22.0575 16.5068 22.1675 16.3968 22.1675 16.8768Z" fill="#003366"/>
<path fill-rule="evenodd" clip-rule="evenodd" d="M6.56741 4.50686H7.50741C8.99741 4.32686 9.16741 4.38686 9.16741 4.16686C9.16741 3.94686 7.79741 3.77686 7.25741 3.77686H6.25741C4.58741 3.93686 4.60741 3.98686 4.59741 4.11686C4.66741 4.43686 6.23741 4.50686 6.56741 4.50686Z" fill="#343434"/>
<path fill-rule="evenodd" clip-rule="evenodd" d="M6.39752 7.18669H7.33752C8.83752 7.08669 8.98752 7.18669 9.03752 6.92669C9.08752 6.66669 7.67752 6.50669 7.16752 6.50669C6.83454 6.48508 6.50051 6.48508 6.16752 6.50669C4.49752 6.65669 4.52752 6.71669 4.51752 6.83669C4.49752 7.13669 6.07752 7.18669 6.39752 7.18669Z" fill="#343434"/>
<path fill-rule="evenodd" clip-rule="evenodd" d="M6.10744 18.3768H7.04744C8.54744 18.2668 8.69744 18.3768 8.74744 18.1068C8.79744 17.8368 7.37744 17.7168 6.84744 17.7068C6.52744 17.7068 6.20744 17.7068 5.84744 17.7568C4.17744 17.9068 4.20744 17.9668 4.18744 18.0868C4.16744 18.3268 5.78744 18.3768 6.10744 18.3768Z" fill="#343434"/>
<path fill-rule="evenodd" clip-rule="evenodd" d="M5.94758 21.0867H6.87758C8.37758 20.9767 8.53758 21.0367 8.57758 20.8167C8.61758 20.5967 7.21758 20.4267 6.67758 20.4167C6.35758 20.4167 6.03758 20.4167 5.67758 20.4667C4.00758 20.6267 4.02758 20.6767 4.01758 20.8067C4.03758 21.0367 5.61758 21.0867 5.94758 21.0867Z" fill="#343434"/>
<path fill-rule="evenodd" clip-rule="evenodd" d="M17.9276 18.7368C18.2476 18.7368 18.5576 18.7368 18.8676 18.6868C20.3676 18.5868 20.5275 18.6368 20.5675 18.4268C20.6075 18.2168 19.2076 18.0268 18.6676 18.0268C18.3501 18.0233 18.0328 18.04 17.7175 18.0768C16.0375 18.2268 16.0676 18.2868 16.0576 18.4068C16.0276 18.6868 17.6076 18.7368 17.9276 18.7368Z" fill="#343434"/>
<path fill-rule="evenodd" clip-rule="evenodd" d="M17.7676 21.4368C18.0776 21.4368 18.3876 21.4368 18.6976 21.3868C20.1976 21.2868 20.3576 21.3368 20.3976 21.1268C20.4376 20.9168 19.0376 20.7268 18.4976 20.7268C18.1776 20.7268 17.8576 20.7268 17.5476 20.7768C15.8776 20.9268 15.8976 20.9868 15.8876 21.1068C15.8576 21.3868 17.4376 21.4368 17.7676 21.4368Z" fill="#343434"/>
<path fill-rule="evenodd" clip-rule="evenodd" d="M18.3475 4.66683H19.2875C20.7775 4.55683 20.9375 4.61683 20.9875 4.39683C21.0375 4.17683 19.6175 4.00683 19.0775 3.99683C18.7675 3.99683 18.4475 3.99683 18.1275 4.04683C16.4575 4.20683 16.4775 4.25683 16.4675 4.38683C16.4375 4.61683 18.0175 4.66683 18.3475 4.66683Z" fill="#343434"/>
<path fill-rule="evenodd" clip-rule="evenodd" d="M18.1676 7.36674C18.4876 7.36674 18.7976 7.36674 19.1076 7.31674C20.6076 7.20674 20.7576 7.31674 20.8076 7.05674C20.8576 6.79674 19.4376 6.65674 18.9076 6.65674H17.9076C16.2376 6.81674 16.2676 6.86674 16.2576 6.99674C16.2476 7.12674 17.8576 7.36674 18.1676 7.36674Z" fill="#343434"/>
</svg>
