<svg width="24" height="25" viewBox="0 0 24 25" fill="none" xmlns="http://www.w3.org/2000/svg">
<g clip-path="url(#clip0_4520_234)">
<path fill-rule="evenodd" clip-rule="evenodd" d="M9.85991 15.24C10.6873 15.5135 11.5631 15.6089 12.4299 15.52C13.4575 15.4869 14.455 15.1649 15.3079 14.5908C16.1609 14.0168 16.8348 13.2139 17.2523 12.2744C17.6699 11.3349 17.8142 10.2967 17.6688 9.27893C17.5233 8.26114 17.0939 7.30495 16.4299 6.52001C15.8552 5.83921 15.1292 5.30232 14.3099 4.9523C13.4906 4.60227 12.6008 4.44882 11.7116 4.50421C10.8224 4.55961 9.95846 4.82231 9.18894 5.27131C8.41943 5.72031 7.76565 6.34315 7.27991 7.09001C5.66991 9.48001 6.50991 12.98 8.10991 14.01C8.17754 14.0578 8.26136 14.0767 8.34294 14.0626C8.42452 14.0485 8.49717 14.0026 8.54491 13.935C8.59264 13.8674 8.61156 13.7836 8.5975 13.702C8.58343 13.6204 8.53754 13.5478 8.46991 13.5C7.18991 12.6 6.60991 9.50001 8.05991 7.61001C8.48056 7.02265 9.02812 6.53758 9.66194 6.19084C10.2958 5.8441 10.9995 5.64459 11.721 5.60712C12.4425 5.56966 13.1632 5.6952 13.8295 5.97442C14.4958 6.25364 15.0907 6.67938 15.5699 7.22001C17.9399 10.03 16.5699 14.3 12.3599 14.79C11.5938 14.8977 10.8136 14.8432 10.0699 14.63C10.0271 14.5973 9.97718 14.5752 9.92418 14.5655C9.87118 14.5559 9.81665 14.559 9.76507 14.5745C9.7135 14.5901 9.66636 14.6177 9.62755 14.655C9.58873 14.6924 9.55934 14.7384 9.54181 14.7894C9.52427 14.8403 9.51909 14.8947 9.52669 14.948C9.53429 15.0013 9.55445 15.0521 9.58552 15.0961C9.61658 15.1401 9.65766 15.1761 9.70536 15.2011C9.75307 15.2261 9.80604 15.2395 9.85991 15.24Z" fill="#343434"/>
<path fill-rule="evenodd" clip-rule="evenodd" d="M23.6399 6.29997C23.5199 5.20997 23.5699 3.02997 22.7199 2.42997C20.8099 1.06997 16.7199 1.42997 13.9099 1.33997C10.4299 1.21997 6.69994 1.49997 3.28994 1.58997C3.2411 1.5815 3.191 1.58381 3.14315 1.59674C3.0953 1.60967 3.05086 1.63291 3.01293 1.66482C2.97501 1.69674 2.94452 1.73656 2.9236 1.7815C2.90268 1.82643 2.89185 1.8754 2.89185 1.92497C2.89185 1.97454 2.90268 2.0235 2.9236 2.06844C2.94452 2.11338 2.97501 2.1532 3.01293 2.18511C3.05086 2.21703 3.0953 2.24027 3.14315 2.2532C3.191 2.26613 3.2411 2.26844 3.28994 2.25997C6.74994 2.25997 10.3599 1.99997 13.8699 2.17997C16.2999 2.30997 20.5399 2.04997 22.1299 3.17997C22.5099 3.45997 22.5199 5.63997 22.5999 6.37997C22.9381 9.06806 22.9616 11.7864 22.6699 14.48C22.6213 15.3735 22.4737 16.2589 22.2299 17.12C19.8299 18.34 2.51994 19.36 1.47994 17.68C1.09851 16.3278 0.883582 14.9342 0.839941 13.53C0.697732 9.9058 0.898627 6.2763 1.43994 2.68997C1.72994 2.41997 1.31994 1.97997 1.03994 2.24997C0.609941 2.63997 0.689941 3.87997 0.619941 4.31997C0.053973 7.68182 -0.120524 11.0979 0.0999409 14.5C0.147576 15.7474 0.35253 16.9839 0.709941 18.18C1.54994 19.59 7.05994 19.64 8.70994 19.65C8.04879 20.5036 7.73128 21.5739 7.81994 22.65L5.65994 22.8C5.58038 22.8 5.50407 22.8316 5.44781 22.8878C5.39155 22.9441 5.35994 23.0204 5.35994 23.1C5.35994 23.1795 5.39155 23.2558 5.44781 23.3121C5.50407 23.3684 5.58038 23.4 5.65994 23.4C7.65994 23.47 9.17994 23.67 11.6599 23.65C14.1399 23.63 15.7199 23.42 17.7299 23.27C17.7788 23.2784 17.8289 23.2761 17.8767 23.2632C17.9246 23.2503 17.969 23.227 18.007 23.1951C18.0449 23.1632 18.0754 23.1234 18.0963 23.0784C18.1172 23.0335 18.128 22.9845 18.128 22.935C18.128 22.8854 18.1172 22.8364 18.0963 22.7915C18.0754 22.7466 18.0449 22.7067 18.007 22.6748C17.969 22.6429 17.9246 22.6197 17.8767 22.6067C17.8289 22.5938 17.7788 22.5915 17.7299 22.6H15.8899C15.7675 21.4943 15.4276 20.4238 14.8899 19.45C17.1622 19.3271 19.4219 19.0329 21.6499 18.57C23.0999 18.2 23.3599 17.83 23.5499 16.76C24.1283 13.2996 24.1587 9.76978 23.6399 6.29997ZM15.1199 22.6C12.2699 22.53 10.8699 22.51 8.56994 22.6C8.72994 22.21 8.96994 21.69 9.07994 21.31C9.22264 20.7686 9.32294 20.2169 9.37994 19.66C9.37994 19.54 9.64994 19.74 14.0599 19.47C14.1489 20.5849 14.5131 21.6604 15.1199 22.6Z" fill="#003366"/>
<path fill-rule="evenodd" clip-rule="evenodd" d="M9.35999 10.16C9.35999 10.16 8.77999 10.33 9.00999 10.66C9.39999 11.25 10.07 12.28 10.73 12.32C11.86 12.38 13.19 9.24995 13.67 8.22995C13.8191 8.07405 13.9138 7.8741 13.94 7.65995C13.9331 7.58798 13.904 7.51992 13.8568 7.46512C13.8096 7.41033 13.7466 7.37149 13.6765 7.35396C13.6063 7.33642 13.5325 7.34104 13.4651 7.36718C13.3976 7.39332 13.34 7.43971 13.3 7.49995C13.06 7.77995 10.62 11.32 10.68 11.41C10.49 11.44 9.49999 10.25 9.35999 10.16Z" fill="#003366"/>
</g>
<defs>
<clipPath id="clip0_4520_234">
<rect width="24" height="24" fill="white" transform="translate(0 0.5)"/>
</clipPath>
</defs>
</svg>
