<svg width="65" height="64" viewBox="0 0 65 64" fill="none" xmlns="http://www.w3.org/2000/svg">
<path fill-rule="evenodd" clip-rule="evenodd" d="M47.1606 25.3419C47.3516 24.6786 47.4899 24.0023 47.5745 23.3188C47.6012 22.8222 47.6012 22.3247 47.5745 21.8281C47.7563 20.55 47.4509 19.2517 46.7149 18.1745C45.979 17.0973 44.8627 16.3146 43.5735 15.9718C40.2541 15.6245 36.9013 16.2067 33.9158 17.6488C31.4678 18.7395 29.3004 20.3395 27.5693 22.3339C25.4981 24.6792 23.5988 27.1608 21.885 29.7607C21.7088 29.751 21.5341 29.7978 21.3883 29.8938C20.0561 30.7451 18.6194 31.4336 17.1114 31.9435C15.6578 32.4446 14.1294 32.7143 12.586 32.7421C11.5069 32.6025 10.4379 32.398 9.38519 32.1299C8.65566 32.0167 7.90875 32.0715 7.20531 32.2896C6.38891 32.612 5.66149 33.1132 5.08061 33.7537C4.41014 34.5337 3.80137 35.3612 3.25944 36.2293C1.94429 37.7861 1.00204 39.6041 0.500097 41.5532C0.494831 42.3379 0.703691 43.1101 1.1057 43.7923C1.50771 44.4745 2.08871 45.0426 2.79035 45.4396L5.71526 47.2498C5.8092 47.3169 5.91603 47.3653 6.02953 47.3923C6.14304 47.4193 6.26096 47.4243 6.37647 47.4069C6.49199 47.3896 6.60278 47.3503 6.70243 47.2913C6.80207 47.2324 6.88859 47.1549 6.95696 47.0634C7.08755 46.8749 7.1375 46.6449 7.09635 46.4217C7.05521 46.1984 6.92617 45.9991 6.73622 45.8656L3.97687 43.9223C3.0111 43.0971 2.67998 42.405 2.76276 41.7395C2.89851 41.2184 3.14259 40.7294 3.48019 40.3021C3.8665 39.7697 4.33559 39.2373 4.80468 38.6517C5.39468 39.3639 6.03059 40.0396 6.70862 40.6747C7.02638 40.9932 7.37781 41.2787 7.75717 41.5266C8.12211 41.7968 8.50976 42.0372 8.9161 42.2453C9.82668 42.7511 10.7649 43.177 11.6754 43.6295L6.15675 51.4024C6.03805 51.569 5.99179 51.7738 6.0279 51.9729C6.06402 52.172 6.17963 52.3494 6.34991 52.4672C6.48032 52.5643 6.64044 52.617 6.8052 52.617C6.96996 52.617 7.13008 52.5643 7.26049 52.4672C7.22959 52.6253 7.25676 52.7889 7.33733 52.9298C7.41791 53.0707 7.54685 53.1801 7.70199 53.2392C8.5698 54.1752 9.49101 55.0639 10.4613 55.9011C10.9316 56.2361 11.4198 56.5471 11.9238 56.8328C12.4254 57.1235 12.9515 57.3728 13.4966 57.5782C14.7708 58.0746 16.0924 58.4491 17.4425 58.6962C17.6694 58.7731 17.9186 58.7602 18.1357 58.6605C18.3528 58.5607 18.5203 58.3822 18.6014 58.1638C18.6705 57.9485 18.6483 57.7155 18.5397 57.5159C18.4311 57.3163 18.2449 57.1664 18.0219 57.099C16.8354 56.5134 15.8145 55.7946 14.7107 55.1292C13.607 54.4637 13.2483 54.2241 12.5032 53.8248C11.1788 53.1593 9.7439 52.6535 8.44701 51.9881C8.34214 51.9296 8.22318 51.8989 8.10209 51.8989C7.981 51.8989 7.86204 51.9296 7.75717 51.9881L12.586 45.7591C12.6276 45.8613 12.6938 45.9526 12.7792 46.0253C13.8553 46.957 14.7659 48.0217 15.8145 48.9534C16.534 49.5904 17.2993 50.1775 18.1047 50.7103C19.5128 51.601 21.0218 52.3334 22.6024 52.8931C22.8154 52.9733 23.0518 52.9733 23.2647 52.8931L22.7956 53.4787C21.4987 55.3155 19.9535 57.0191 18.7394 58.5631C18.5759 58.7225 18.4842 58.9378 18.4842 59.162C18.4842 59.3863 18.5759 59.6015 18.7394 59.761C18.9093 59.9203 19.137 60.0095 19.374 60.0095C19.611 60.0095 19.8387 59.9203 20.0087 59.761C20.7537 58.989 21.5263 58.0839 22.3541 57.099C22.2707 57.1549 22.1996 57.2261 22.1447 57.3085C22.0899 57.391 22.0524 57.483 22.0345 57.5795C22.0165 57.6759 22.0185 57.7748 22.0402 57.8705C22.0619 57.9662 22.1029 58.0568 22.161 58.1372C22.778 59.5035 23.7239 60.708 24.9203 61.6509C25.6341 62.1838 26.4241 62.6142 27.2657 62.9287C28.4893 63.3949 29.7547 63.7513 31.046 63.9935C31.6807 64.2064 36.0405 59.202 36.1232 59.0955C36.915 58.1099 37.4624 56.9626 37.7237 55.7414C37.8119 55.0684 37.7363 54.3848 37.5029 53.7449C37.1718 52.7334 36.4544 51.6952 36.2612 50.8434C35.7909 49.2416 35.5587 47.5836 35.5714 45.9188C35.538 44.2315 35.7896 42.5502 36.3164 40.9409C36.3305 40.8706 36.3305 40.7983 36.3164 40.728C38.6292 38.4587 40.821 36.0776 42.8836 33.5939C44.8947 31.1638 46.352 28.352 47.1606 25.3419ZM34.9643 20.3374C37.3576 19.133 40.0554 18.6069 42.7457 18.8201C43.9046 19.1129 44.622 20.0446 44.6772 21.908C44.732 22.359 44.732 22.8146 44.6772 23.2656C44.612 23.7491 44.5198 24.229 44.4013 24.703C43.9686 26.4974 43.242 28.2137 42.249 29.7874C42.3036 29.1051 42.3036 28.4199 42.249 27.7376C42.2213 26.8242 42.025 25.9228 41.6695 25.0757C41.2779 24.2362 40.6821 23.5002 39.9327 22.9302C39.1834 22.3602 38.3025 21.973 37.3649 21.8015C35.2662 21.4971 33.121 21.8126 31.2116 22.7066C32.3121 21.7147 33.5816 20.9133 34.9643 20.3374ZM10.7373 40.0891C10.4064 39.7845 10.0562 39.5 9.68872 39.2373C9.3289 38.9733 8.95092 38.7332 8.55738 38.5186C7.72511 38.0588 6.86855 37.6412 5.99119 37.2674C6.37187 36.6965 6.79614 36.1537 7.26049 35.6437C7.54029 35.3443 7.87765 35.1002 8.25386 34.9249C8.50834 34.8708 8.77199 34.8708 9.02647 34.9249C10.2539 35.1581 11.5007 35.2828 12.7516 35.2976C14.5538 35.0786 16.3064 34.575 17.9392 33.8069C18.5186 33.5407 19.0705 33.2213 19.6224 32.9018L12.9172 42.2187C12.1721 41.5 11.5099 40.7812 10.7373 40.0891ZM23.4578 51.3758C22.3348 50.5533 21.2658 49.6642 20.257 48.7138C19.5396 48.1282 18.8221 47.516 18.0219 46.9836C16.6387 46.1101 15.18 45.3531 13.6622 44.7209C13.6622 44.7209 13.4966 44.7209 13.4138 44.7209L22.9888 32.4227C25.0931 29.5542 27.3592 26.7994 29.7767 24.1706V23.9577V24.0908C29.8159 24.1822 29.8736 24.2652 29.9463 24.3349C30.0191 24.4046 30.1055 24.4596 30.2005 24.4968C30.2955 24.534 30.3973 24.5525 30.4998 24.5514C30.6023 24.5502 30.7036 24.5294 30.7977 24.4901C32.4083 24.0244 34.1103 23.9332 35.7645 24.2239C36.4678 24.325 37.1432 24.5603 37.7513 24.916C38.3305 25.203 38.81 25.6471 39.1309 26.1937C39.561 26.8965 39.8423 27.6746 39.9587 28.483C40.0784 29.3655 40.1337 30.255 40.1243 31.1449C40.1016 31.3132 40.1315 31.4842 40.2101 31.6359C40.2888 31.7877 40.4126 31.9134 40.5658 31.9968C38.0272 35.3508 34.8263 38.3855 32.2878 41.5266C29.7492 44.6677 26.7691 48.3944 23.8717 52.1744C23.9014 52.016 23.8771 51.8526 23.8025 51.7087C23.7279 51.5648 23.607 51.448 23.4578 51.3758ZM31.4875 61.4646C31.379 61.6224 31.3214 61.8077 31.322 61.997C30.1355 61.3581 28.9213 60.5596 27.6521 59.761C27.2239 59.4911 26.7818 59.2424 26.3276 59.0156C25.8861 58.7494 25.417 58.5631 24.9755 58.2969C24.4237 57.9757 23.9141 57.5914 23.4578 57.1522C23.3999 57.0718 23.3261 57.0031 23.2407 56.9502C23.1552 56.8973 23.0598 56.8612 22.9598 56.8439C22.8599 56.8266 22.7574 56.8284 22.6582 56.8494C22.559 56.8703 22.465 56.9099 22.3817 56.9659L24.2581 54.6766L25.7757 52.8931C25.7765 52.9898 25.7992 53.0851 25.8421 53.1724C25.885 53.2598 25.9471 53.337 26.024 53.3989C26.6311 54.1975 27.1278 55.0493 27.79 55.8213C28.0641 56.1574 28.3688 56.4692 28.7006 56.753C29.033 57.0312 29.3832 57.2891 29.7492 57.5249C30.6221 58.1061 31.5453 58.6138 32.5085 59.0422C32.6959 59.1603 32.9218 59.2077 33.1432 59.1753C32.6741 60.0005 32.0394 60.7725 31.4875 61.4646ZM34.2469 57.7379L33.971 58.1372C33.9144 57.9409 33.7993 57.765 33.6398 57.6314C32.8948 56.9393 32.3153 56.1673 31.6255 55.4486C31.1726 54.9626 30.6838 54.5089 30.1631 54.091C29.2065 53.4193 28.2013 52.8144 27.1554 52.2809C27.0581 52.2097 26.9465 52.1587 26.8278 52.1312C26.7091 52.1037 26.5857 52.1003 26.4655 52.1212C29.0317 49.0599 31.5979 45.9188 33.7502 43.4698C33.5384 44.1853 33.3816 44.9149 33.2811 45.6526C33.0265 47.558 33.0917 49.4905 33.4743 51.3758C33.7226 52.3075 34.44 53.4521 34.8539 54.5169C34.9872 54.7548 35.0627 55.0187 35.0747 55.2889C35.0107 56.1583 34.7265 56.9992 34.2469 57.7379Z" fill="#343434"/>
<path fill-rule="evenodd" clip-rule="evenodd" d="M52.2655 35.6702C53.8107 33.4874 55.356 31.3312 56.6529 29.0419C57.5442 27.4678 58.3098 25.8304 58.9431 24.1439C59.886 21.0345 60.1121 17.7636 59.6054 14.5609C58.7701 10.0564 57.6271 5.61011 56.1838 1.25112C56.1384 1.07758 56.0297 0.925606 55.8777 0.822967C55.7257 0.720327 55.5405 0.673878 55.356 0.692108C55.3271 0.514103 55.2387 0.350093 55.1042 0.225122C54.9696 0.100151 54.7964 0.0210863 54.6109 0C51.3561 0.0942088 48.1114 0.39656 44.898 0.905065C42.6605 1.2687 40.4687 1.85755 38.3584 2.66195C36.2715 3.51374 34.3132 4.63296 32.5362 5.9894C29.9634 8.07515 27.5475 10.3346 25.3067 12.7508C23.8994 14.2415 22.4094 15.7055 21.0297 17.2228C20.0494 18.2468 19.1282 19.3221 18.2704 20.4438C18.1346 20.5902 18.0596 20.7798 18.0596 20.9762C18.0596 21.1726 18.1346 21.3622 18.2704 21.5086C18.3604 21.6036 18.4736 21.6754 18.5998 21.7174C18.7259 21.7595 18.8609 21.7704 18.9926 21.7492C19.1242 21.7281 19.2483 21.6755 19.3535 21.5963C19.4587 21.517 19.5416 21.4137 19.5949 21.2956C20.4572 20.2875 21.3784 19.3276 22.3542 18.4207C23.8718 17.0365 25.4999 15.7588 27.0175 14.3746C29.3031 12.2028 31.7072 10.1502 34.2194 8.22544C35.8287 6.98483 37.5894 5.93889 39.4621 5.11095C41.3213 4.27743 43.2626 3.62641 45.2568 3.16773C48.338 2.48729 51.4631 2.00706 54.6109 1.73027C55.6337 6.05892 56.3984 10.4406 56.9012 14.8537C57.2262 17.6775 56.9252 20.5358 56.0182 23.2389C55.4514 24.7928 54.769 26.3051 53.9763 27.7642C52.7898 30.0268 51.4653 32.2096 50.0856 34.3925C49.1423 35.9459 48.1106 37.4478 46.9951 38.8912C45.9314 40.3327 44.7893 41.7188 43.5736 43.0438C43.4084 43.2078 43.316 43.4274 43.316 43.6561C43.316 43.8847 43.4084 44.1043 43.5736 44.2683C43.7389 44.426 43.962 44.5144 44.1944 44.5144C44.4269 44.5144 44.65 44.426 44.8153 44.2683C46.2019 42.9581 47.5189 41.581 48.7611 40.1423C49.9752 38.7048 51.1342 37.2674 52.2655 35.6702Z" fill="#343434"/>
<path fill-rule="evenodd" clip-rule="evenodd" d="M64.048 29.2815C63.5789 27.5513 62.8891 25.8476 62.3924 24.3569C62.3344 24.1647 62.2013 24.0017 62.0211 23.9024C61.8409 23.803 61.6277 23.7751 61.4266 23.8245C61.2295 23.8746 61.0608 23.9979 60.9574 24.1674C60.8541 24.3369 60.8243 24.539 60.8748 24.7296C61.2059 26.2469 61.7302 27.9772 62.0061 29.6808C62.1706 30.6951 62.1706 31.7278 62.0061 32.7421C61.8804 33.4999 61.6386 34.2356 61.2887 34.9249C60.7368 36.0961 60.0469 37.1875 59.4123 38.3056C58.2516 40.5372 56.9042 42.6738 55.3837 44.6943C53.121 47.862 50.6928 50.9232 48.4025 54.091C48.269 54.2763 48.2146 54.5042 48.2506 54.7272C48.2865 54.9502 48.4101 55.1513 48.5957 55.2888C48.6879 55.3573 48.7933 55.4076 48.9058 55.4366C49.0182 55.4657 49.1356 55.473 49.251 55.4582C49.3664 55.4433 49.4776 55.4066 49.5782 55.3501C49.6789 55.2937 49.7669 55.2186 49.8374 55.1291C52.7899 51.642 56.1011 48.3677 58.8604 44.7209C60.0724 43.1006 61.1518 41.3918 62.0889 39.6099C62.6683 38.3854 63.3582 37.1875 63.8273 35.9098C64.2003 34.9717 64.4236 33.9844 64.4895 32.9817C64.5432 31.7336 64.3942 30.4852 64.048 29.2815Z" fill="#003366"/>
<path fill-rule="evenodd" clip-rule="evenodd" d="M5.10837 22.4137L11.1789 14.9868C12.2551 13.4962 13.3036 11.7659 14.5453 10.2486C14.9668 9.66286 15.4474 9.11894 15.9802 8.62478C16.4454 8.24309 16.9782 7.9455 17.553 7.74633C18.6016 7.34704 19.7329 7.13408 20.8642 6.81465C22.713 6.25564 24.4238 5.59015 26.2174 5.13762C27.3792 4.82679 28.5728 4.63935 29.7769 4.5786C29.9845 4.57872 30.1839 4.50106 30.3332 4.36199C30.4825 4.22293 30.57 4.03335 30.5771 3.83326C30.5702 3.63063 30.4837 3.43812 30.3351 3.29476C30.1865 3.15141 29.987 3.06794 29.7769 3.06129C28.4567 3.01833 27.1353 3.09856 25.8311 3.30087C23.9547 3.56706 22.1611 4.01959 20.3124 4.36565C19.0769 4.54342 17.8519 4.78332 16.6424 5.08438C15.7063 5.37743 14.8357 5.83799 14.0762 6.44197C13.1182 7.26566 12.2742 8.20509 11.5652 9.23703C10.5719 10.6479 9.79926 12.2184 8.8059 13.6026C7.81253 14.9868 7.70216 15.7056 6.95714 16.7437C5.88099 18.3143 4.77725 19.8582 3.70111 21.2957C3.63009 21.3847 3.57802 21.4864 3.54789 21.5949C3.51777 21.7033 3.51018 21.8165 3.52557 21.9278C3.54096 22.0392 3.57901 22.1465 3.63755 22.2436C3.69609 22.3407 3.77396 22.4256 3.86667 22.4936C4.04551 22.6347 4.2733 22.705 4.50387 22.6902C4.73444 22.6754 4.95054 22.5765 5.10837 22.4137Z" fill="#003366"/>
</svg>
